<?xml version="1.0" encoding="UTF-8" standalone="no"?>
<!DOCTYPE svg PUBLIC "-//W3C//DTD SVG 1.1//EN"
 "http://www.w3.org/Graphics/SVG/1.1/DTD/svg11.dtd">
<!-- Generated by graphviz version 2.43.0 (0)
 -->
<!-- Title: sourcetree Pages: 1 -->
<svg width="2025pt" height="260pt"
 viewBox="0.00 0.00 2025.00 260.00" xmlns="http://www.w3.org/2000/svg" xmlns:xlink="http://www.w3.org/1999/xlink">
<g id="graph0" class="graph" transform="scale(1 1) rotate(0) translate(4 256)">
<title>sourcetree</title>
<polygon fill="white" stroke="transparent" points="-4,4 -4,-256 2021,-256 2021,4 -4,4"/>
<!-- MulleFoundation -->
<g id="node1" class="node">
<title>MulleFoundation</title>
<polygon fill="yellow" stroke="black" points="1014,-252 877,-252 877,-216 1014,-216 1014,-252"/>
<text text-anchor="middle" x="945.5" y="-230.3" font-family="Times,serif" font-size="14.00">MulleFoundation</text>
</g>
<!-- MulleObjCArchiverFoundation -->
<g id="node2" class="node">
<title>MulleObjCArchiverFoundation</title>
<polygon fill="lightgrey" stroke="black" points="233,-180 0,-180 0,-144 233,-144 233,-180"/>
<text text-anchor="middle" x="116.5" y="-158.3" font-family="Times,serif" font-size="14.00">MulleObjCArchiverFoundation</text>
</g>
<!-- MulleFoundation&#45;&gt;MulleObjCArchiverFoundation -->
<g id="edge1" class="edge">
<title>MulleFoundation&#45;&gt;MulleObjCArchiverFoundation</title>
<path fill="none" stroke="black" d="M876.92,-229.21C752.67,-222.04 481.82,-205.03 243.49,-180.18"/>
<polygon fill="black" stroke="black" points="243.56,-176.67 233.25,-179.1 242.83,-183.63 243.56,-176.67"/>
</g>
<!-- MulleObjCCalendarFoundation -->
<g id="node3" class="node">
<title>MulleObjCCalendarFoundation</title>
<polygon fill="lightgrey" stroke="black" points="488,-180 251,-180 251,-144 488,-144 488,-180"/>
<text text-anchor="middle" x="369.5" y="-158.3" font-family="Times,serif" font-size="14.00">MulleObjCCalendarFoundation</text>
</g>
<!-- MulleFoundation&#45;&gt;MulleObjCCalendarFoundation -->
<g id="edge2" class="edge">
<title>MulleFoundation&#45;&gt;MulleObjCCalendarFoundation</title>
<path fill="none" stroke="black" d="M876.77,-225.18C790.87,-215.33 639.07,-197.71 498.17,-180.07"/>
<polygon fill="black" stroke="black" points="498.4,-176.58 488.05,-178.8 497.53,-183.52 498.4,-176.58"/>
</g>
<!-- MulleObjCDecimalFoundation -->
<g id="node4" class="node">
<title>MulleObjCDecimalFoundation</title>
<polygon fill="lightgrey" stroke="black" points="736.5,-180 506.5,-180 506.5,-144 736.5,-144 736.5,-180"/>
<text text-anchor="middle" x="621.5" y="-158.3" font-family="Times,serif" font-size="14.00">MulleObjCDecimalFoundation</text>
</g>
<!-- MulleFoundation&#45;&gt;MulleObjCDecimalFoundation -->
<g id="edge3" class="edge">
<title>MulleFoundation&#45;&gt;MulleObjCDecimalFoundation</title>
<path fill="none" stroke="black" d="M876.79,-218.15C828.27,-207.67 762.83,-193.53 710.35,-182.2"/>
<polygon fill="black" stroke="black" points="710.88,-178.73 700.37,-180.04 709.41,-185.57 710.88,-178.73"/>
</g>
<!-- MulleObjCKVCFoundation -->
<g id="node5" class="node">
<title>MulleObjCKVCFoundation</title>
<polygon fill="lightgrey" stroke="black" points="958,-180 755,-180 755,-144 958,-144 958,-180"/>
<text text-anchor="middle" x="856.5" y="-158.3" font-family="Times,serif" font-size="14.00">MulleObjCKVCFoundation</text>
</g>
<!-- MulleFoundation&#45;&gt;MulleObjCKVCFoundation -->
<g id="edge4" class="edge">
<title>MulleFoundation&#45;&gt;MulleObjCKVCFoundation</title>
<path fill="none" stroke="black" d="M923.5,-215.7C912.29,-206.88 898.5,-196.03 886.35,-186.47"/>
<polygon fill="black" stroke="black" points="888.27,-183.54 878.25,-180.1 883.94,-189.04 888.27,-183.54"/>
</g>
<!-- mulle&#45;objc&#45;list -->
<g id="node6" class="node">
<title>mulle&#45;objc&#45;list</title>
<polygon fill="lightgrey" stroke="black" points="1093,-180 976,-180 976,-144 1093,-144 1093,-180"/>
<text text-anchor="middle" x="1034.5" y="-158.3" font-family="Times,serif" font-size="14.00">mulle&#45;objc&#45;list</text>
</g>
<!-- MulleFoundation&#45;&gt;mulle&#45;objc&#45;list -->
<g id="edge5" class="edge">
<title>MulleFoundation&#45;&gt;mulle&#45;objc&#45;list</title>
<path fill="none" stroke="black" d="M967.5,-215.7C978.71,-206.88 992.5,-196.03 1004.65,-186.47"/>
<polygon fill="black" stroke="black" points="1007.06,-189.04 1012.75,-180.1 1002.73,-183.54 1007.06,-189.04"/>
</g>
<!-- MulleObjCMathFoundation -->
<g id="node7" class="node">
<title>MulleObjCMathFoundation</title>
<polygon fill="lightgrey" stroke="black" points="1321.5,-180 1111.5,-180 1111.5,-144 1321.5,-144 1321.5,-180"/>
<text text-anchor="middle" x="1216.5" y="-158.3" font-family="Times,serif" font-size="14.00">MulleObjCMathFoundation</text>
</g>
<!-- MulleFoundation&#45;&gt;MulleObjCMathFoundation -->
<g id="edge6" class="edge">
<title>MulleFoundation&#45;&gt;MulleObjCMathFoundation</title>
<path fill="none" stroke="black" d="M1011.45,-215.97C1050.38,-205.91 1099.83,-193.14 1140.41,-182.65"/>
<polygon fill="black" stroke="black" points="1141.45,-186 1150.26,-180.11 1139.7,-179.22 1141.45,-186"/>
</g>
<!-- MulleObjCOSFoundation -->
<g id="node8" class="node">
<title>MulleObjCOSFoundation</title>
<polygon fill="lightgrey" stroke="black" points="1533.5,-180 1339.5,-180 1339.5,-144 1533.5,-144 1533.5,-180"/>
<text text-anchor="middle" x="1436.5" y="-158.3" font-family="Times,serif" font-size="14.00">MulleObjCOSFoundation</text>
</g>
<!-- MulleFoundation&#45;&gt;MulleObjCOSFoundation -->
<g id="edge7" class="edge">
<title>MulleFoundation&#45;&gt;MulleObjCOSFoundation</title>
<path fill="none" stroke="black" d="M1014.07,-224.03C1088.93,-214.13 1212.64,-197.46 1329.29,-180.16"/>
<polygon fill="black" stroke="black" points="1330.09,-183.58 1339.47,-178.65 1329.06,-176.66 1330.09,-183.58"/>
</g>
<!-- MulleObjCUnicodeFoundation -->
<g id="node9" class="node">
<title>MulleObjCUnicodeFoundation</title>
<polygon fill="lightgrey" stroke="black" points="1782,-180 1551,-180 1551,-144 1782,-144 1782,-180"/>
<text text-anchor="middle" x="1666.5" y="-158.3" font-family="Times,serif" font-size="14.00">MulleObjCUnicodeFoundation</text>
</g>
<!-- MulleFoundation&#45;&gt;MulleObjCUnicodeFoundation -->
<g id="edge8" class="edge">
<title>MulleFoundation&#45;&gt;MulleObjCUnicodeFoundation</title>
<path fill="none" stroke="black" d="M1014.1,-227.98C1123.39,-219.74 1343.99,-202.16 1540.74,-180.17"/>
<polygon fill="black" stroke="black" points="1541.14,-183.65 1550.68,-179.06 1540.36,-176.69 1541.14,-183.65"/>
</g>
<!-- src/BSD -->
<g id="node10" class="node">
<title>src/BSD</title>
<polygon fill="lightgrey" stroke="black" points="1138.5,-108 1064.5,-108 1064.5,-72 1138.5,-72 1138.5,-108"/>
<text text-anchor="middle" x="1101.5" y="-86.3" font-family="Times,serif" font-size="14.00">src/BSD</text>
</g>
<!-- MulleObjCOSFoundation&#45;&gt;src/BSD -->
<g id="edge9" class="edge">
<title>MulleObjCOSFoundation&#45;&gt;src/BSD</title>
<path fill="none" stroke="black" d="M1339.29,-145.02C1274.81,-134.1 1195.07,-119.88 1148.67,-108.02"/>
<polygon fill="black" stroke="black" points="1149.29,-104.57 1138.73,-105.37 1147.49,-111.33 1149.29,-104.57"/>
</g>
<!-- src/Darwin -->
<g id="node11" class="node">
<title>src/Darwin</title>
<polygon fill="lightgrey" stroke="black" points="1252,-108 1157,-108 1157,-72 1252,-72 1252,-108"/>
<text text-anchor="middle" x="1204.5" y="-86.3" font-family="Times,serif" font-size="14.00">src/Darwin</text>
</g>
<!-- MulleObjCOSFoundation&#45;&gt;src/Darwin -->
<g id="edge10" class="edge">
<title>MulleObjCOSFoundation&#45;&gt;src/Darwin</title>
<path fill="none" stroke="black" d="M1380.04,-143.97C1344.24,-133.16 1298.06,-119.23 1262.06,-108.37"/>
<polygon fill="black" stroke="black" points="1262.77,-104.93 1252.19,-105.39 1260.75,-111.63 1262.77,-104.93"/>
</g>
<!-- src/FreeBSD -->
<g id="node12" class="node">
<title>src/FreeBSD</title>
<polygon fill="lightgrey" stroke="black" points="1377,-108 1270,-108 1270,-72 1377,-72 1377,-108"/>
<text text-anchor="middle" x="1323.5" y="-86.3" font-family="Times,serif" font-size="14.00">src/FreeBSD</text>
</g>
<!-- MulleObjCOSFoundation&#45;&gt;src/FreeBSD -->
<g id="edge11" class="edge">
<title>MulleObjCOSFoundation&#45;&gt;src/FreeBSD</title>
<path fill="none" stroke="black" d="M1408.86,-143.88C1394.08,-134.72 1375.71,-123.34 1359.8,-113.48"/>
<polygon fill="black" stroke="black" points="1361.59,-110.48 1351.25,-108.19 1357.91,-116.43 1361.59,-110.48"/>
</g>
<!-- src/Linux -->
<g id="node13" class="node">
<title>src/Linux</title>
<polygon fill="lightgrey" stroke="black" points="1478,-108 1395,-108 1395,-72 1478,-72 1478,-108"/>
<text text-anchor="middle" x="1436.5" y="-86.3" font-family="Times,serif" font-size="14.00">src/Linux</text>
</g>
<!-- MulleObjCOSFoundation&#45;&gt;src/Linux -->
<g id="edge12" class="edge">
<title>MulleObjCOSFoundation&#45;&gt;src/Linux</title>
<path fill="none" stroke="black" d="M1436.5,-143.7C1436.5,-135.98 1436.5,-126.71 1436.5,-118.11"/>
<polygon fill="black" stroke="black" points="1440,-118.1 1436.5,-108.1 1433,-118.1 1440,-118.1"/>
</g>
<!-- src/OSBase -->
<g id="node14" class="node">
<title>src/OSBase</title>
<polygon fill="lightgrey" stroke="black" points="1594.5,-108 1496.5,-108 1496.5,-72 1594.5,-72 1594.5,-108"/>
<text text-anchor="middle" x="1545.5" y="-86.3" font-family="Times,serif" font-size="14.00">src/OSBase</text>
</g>
<!-- MulleObjCOSFoundation&#45;&gt;src/OSBase -->
<g id="edge13" class="edge">
<title>MulleObjCOSFoundation&#45;&gt;src/OSBase</title>
<path fill="none" stroke="black" d="M1463.16,-143.88C1477.28,-134.81 1494.81,-123.55 1510.06,-113.76"/>
<polygon fill="black" stroke="black" points="1512.21,-116.54 1518.73,-108.19 1508.43,-110.65 1512.21,-116.54"/>
</g>
<!-- src/Posix -->
<g id="node15" class="node">
<title>src/Posix</title>
<polygon fill="lightgrey" stroke="black" points="1692.5,-108 1612.5,-108 1612.5,-72 1692.5,-72 1692.5,-108"/>
<text text-anchor="middle" x="1652.5" y="-86.3" font-family="Times,serif" font-size="14.00">src/Posix</text>
</g>
<!-- MulleObjCOSFoundation&#45;&gt;src/Posix -->
<g id="edge14" class="edge">
<title>MulleObjCOSFoundation&#45;&gt;src/Posix</title>
<path fill="none" stroke="black" d="M1491.53,-143.94C1521.85,-134.45 1560.39,-122.23 1602.74,-108.21"/>
<polygon fill="black" stroke="black" points="1604.03,-111.47 1612.42,-105 1601.82,-104.83 1604.03,-111.47"/>
</g>
<!-- src/Windows -->
<g id="node16" class="node">
<title>src/Windows</title>
<polygon fill="lightgrey" stroke="black" points="1818,-108 1711,-108 1711,-72 1818,-72 1818,-108"/>
<text text-anchor="middle" x="1764.5" y="-86.3" font-family="Times,serif" font-size="14.00">src/Windows</text>
</g>
<!-- MulleObjCOSFoundation&#45;&gt;src/Windows -->
<g id="edge15" class="edge">
<title>MulleObjCOSFoundation&#45;&gt;src/Windows</title>
<path fill="none" stroke="black" d="M1529.42,-143.98C1577.81,-134.74 1638.14,-122.65 1700.86,-108.07"/>
<polygon fill="black" stroke="black" points="1702.01,-111.4 1710.94,-105.71 1700.41,-104.58 1702.01,-111.4"/>
</g>
<!-- mulle&#45;mmap -->
<g id="node17" class="node">
<title>mulle&#45;mmap</title>
<polygon fill="lightgrey" stroke="black" points="1312,-36 1207,-36 1207,0 1312,0 1312,-36"/>
<text text-anchor="middle" x="1259.5" y="-14.3" font-family="Times,serif" font-size="14.00">mulle&#45;mmap</text>
</g>
<!-- src/OSBase&#45;&gt;mulle&#45;mmap -->
<g id="edge16" class="edge">
<title>src/OSBase&#45;&gt;mulle&#45;mmap</title>
<path fill="none" stroke="black" d="M1496.21,-74.29C1493.27,-73.49 1490.35,-72.73 1487.5,-72 1417.34,-54.14 1396.51,-53.97 1322.07,-36.06"/>
<polygon fill="black" stroke="black" points="1322.76,-32.63 1312.21,-33.66 1321.1,-39.43 1322.76,-32.63"/>
</g>
<!-- MulleObjCLockFoundation -->
<g id="node18" class="node">
<title>MulleObjCLockFoundation</title>
<polygon fill="lightgrey" stroke="black" points="1536.5,-36 1330.5,-36 1330.5,0 1536.5,0 1536.5,-36"/>
<text text-anchor="middle" x="1433.5" y="-14.3" font-family="Times,serif" font-size="14.00">MulleObjCLockFoundation</text>
</g>
<!-- src/OSBase&#45;&gt;MulleObjCLockFoundation -->
<g id="edge17" class="edge">
<title>src/OSBase&#45;&gt;MulleObjCLockFoundation</title>
<path fill="none" stroke="black" d="M1518.1,-71.88C1503.59,-62.81 1485.58,-51.55 1469.91,-41.76"/>
<polygon fill="black" stroke="black" points="1471.34,-38.52 1461,-36.19 1467.63,-44.46 1471.34,-38.52"/>
</g>
<!-- MulleObjCPlistFoundation -->
<g id="node19" class="node">
<title>MulleObjCPlistFoundation</title>
<polygon fill="lightgrey" stroke="black" points="1760,-36 1555,-36 1555,0 1760,0 1760,-36"/>
<text text-anchor="middle" x="1657.5" y="-14.3" font-family="Times,serif" font-size="14.00">MulleObjCPlistFoundation</text>
</g>
<!-- src/OSBase&#45;&gt;MulleObjCPlistFoundation -->
<g id="edge18" class="edge">
<title>src/OSBase&#45;&gt;MulleObjCPlistFoundation</title>
<path fill="none" stroke="black" d="M1572.9,-71.88C1587.41,-62.81 1605.42,-51.55 1621.09,-41.76"/>
<polygon fill="black" stroke="black" points="1623.37,-44.46 1630,-36.19 1619.66,-38.52 1623.37,-44.46"/>
</g>
<!-- MulleObjCStandardFoundation -->
<g id="node20" class="node">
<title>MulleObjCStandardFoundation</title>
<polygon fill="lightgrey" stroke="black" points="2017,-36 1778,-36 1778,0 2017,0 2017,-36"/>
<text text-anchor="middle" x="1897.5" y="-14.3" font-family="Times,serif" font-size="14.00">MulleObjCStandardFoundation</text>
</g>
<!-- src/OSBase&#45;&gt;MulleObjCStandardFoundation -->
<g id="edge19" class="edge">
<title>src/OSBase&#45;&gt;MulleObjCStandardFoundation</title>
<path fill="none" stroke="black" d="M1594.77,-74.17C1597.71,-73.41 1600.64,-72.67 1603.5,-72 1660.05,-58.66 1723.41,-46.84 1776.79,-37.77"/>
<polygon fill="black" stroke="black" points="1777.7,-41.17 1786.98,-36.05 1776.54,-34.27 1777.7,-41.17"/>
</g>
</g>
</svg>
