<?xml version="1.0" encoding="UTF-8" standalone="no"?>
<!DOCTYPE svg PUBLIC "-//W3C//DTD SVG 1.1//EN"
 "http://www.w3.org/Graphics/SVG/1.1/DTD/svg11.dtd">
<!-- Generated by graphviz version 2.43.0 (0)
 -->
<!-- Title: sourcetree Pages: 1 -->
<svg width="3612pt" height="260pt"
 viewBox="0.00 0.00 3611.50 260.00" xmlns="http://www.w3.org/2000/svg" xmlns:xlink="http://www.w3.org/1999/xlink">
<g id="graph0" class="graph" transform="scale(1 1) rotate(0) translate(4 256)">
<title>sourcetree</title>
<polygon fill="white" stroke="transparent" points="-4,4 -4,-256 3607.5,-256 3607.5,4 -4,4"/>
<!-- MulleFoundation -->
<g id="node1" class="node">
<title>MulleFoundation</title>
<polygon fill="yellow" stroke="black" points="439,-252 302,-252 302,-216 439,-216 439,-252"/>
<text text-anchor="middle" x="370.5" y="-230.3" font-family="Times,serif" font-size="14.00">MulleFoundation</text>
</g>
<!-- MulleObjCCalendarFoundation -->
<g id="node19" class="node">
<title>MulleObjCCalendarFoundation</title>
<g id="a_node19"><a xlink:href="https://github.com/MulleFoundation/MulleObjCCalendarFoundation" xlink:title="MulleObjCCalendarFoundation">
<polygon fill="lightgrey" stroke="black" points="237,-180 0,-180 0,-144 237,-144 237,-180"/>
<text text-anchor="middle" x="118.5" y="-158.3" font-family="Times,serif" font-size="14.00">MulleObjCCalendarFoundation</text>
</a>
</g>
</g>
<!-- MulleFoundation&#45;&gt;MulleObjCCalendarFoundation -->
<g id="edge13" class="edge">
<title>MulleFoundation&#45;&gt;MulleObjCCalendarFoundation</title>
<path fill="none" stroke="black" d="M309.18,-215.97C273.2,-205.97 227.57,-193.3 189.97,-182.85"/>
<polygon fill="black" stroke="black" points="190.67,-179.42 180.1,-180.11 188.8,-186.16 190.67,-179.42"/>
</g>
<!-- MulleObjCDecimalFoundation -->
<g id="node20" class="node">
<title>MulleObjCDecimalFoundation</title>
<g id="a_node20"><a xlink:href="https://github.com/MulleFoundation/MulleObjCDecimalFoundation" xlink:title="MulleObjCDecimalFoundation">
<polygon fill="lightgrey" stroke="black" points="485.5,-180 255.5,-180 255.5,-144 485.5,-144 485.5,-180"/>
<text text-anchor="middle" x="370.5" y="-158.3" font-family="Times,serif" font-size="14.00">MulleObjCDecimalFoundation</text>
</a>
</g>
</g>
<!-- MulleFoundation&#45;&gt;MulleObjCDecimalFoundation -->
<g id="edge14" class="edge">
<title>MulleFoundation&#45;&gt;MulleObjCDecimalFoundation</title>
<path fill="none" stroke="black" d="M370.5,-215.7C370.5,-207.98 370.5,-198.71 370.5,-190.11"/>
<polygon fill="black" stroke="black" points="374,-190.1 370.5,-180.1 367,-190.1 374,-190.1"/>
</g>
<!-- MulleObjCOSFoundation -->
<g id="node21" class="node">
<title>MulleObjCOSFoundation</title>
<g id="a_node21"><a xlink:href="https://github.com/MulleFoundation/MulleObjCOSFoundation" xlink:title="MulleObjCOSFoundation">
<polygon fill="lightgrey" stroke="black" points="697.5,-180 503.5,-180 503.5,-144 697.5,-144 697.5,-180"/>
<text text-anchor="middle" x="600.5" y="-158.3" font-family="Times,serif" font-size="14.00">MulleObjCOSFoundation</text>
</a>
</g>
</g>
<!-- MulleFoundation&#45;&gt;MulleObjCOSFoundation -->
<g id="edge15" class="edge">
<title>MulleFoundation&#45;&gt;MulleObjCOSFoundation</title>
<path fill="none" stroke="black" d="M426.47,-215.97C459.03,-206.06 500.24,-193.51 534.39,-183.12"/>
<polygon fill="black" stroke="black" points="535.73,-186.37 544.28,-180.11 533.69,-179.67 535.73,-186.37"/>
</g>
<!-- BSD -->
<g id="node2" class="node">
<title>BSD</title>
<g id="a_node2"><a xlink:href="https://unknown.com/" xlink:title="BSD">
<polygon fill="lightgrey" stroke="black" points="368.5,-108 314.5,-108 314.5,-72 368.5,-72 368.5,-108"/>
<text text-anchor="middle" x="341.5" y="-86.3" font-family="Times,serif" font-size="14.00">BSD</text>
</a>
</g>
</g>
<!-- Darwin -->
<g id="node3" class="node">
<title>Darwin</title>
<g id="a_node3"><a xlink:href="https://unknown.com/" xlink:title="Darwin">
<polygon fill="lightgrey" stroke="black" points="454.5,-108 386.5,-108 386.5,-72 454.5,-72 454.5,-108"/>
<text text-anchor="middle" x="420.5" y="-86.3" font-family="Times,serif" font-size="14.00">Darwin</text>
</a>
</g>
</g>
<!-- FreeBSD -->
<g id="node4" class="node">
<title>FreeBSD</title>
<g id="a_node4"><a xlink:href="https://unknown.com/" xlink:title="FreeBSD">
<polygon fill="lightgrey" stroke="black" points="554,-108 473,-108 473,-72 554,-72 554,-108"/>
<text text-anchor="middle" x="513.5" y="-86.3" font-family="Times,serif" font-size="14.00">FreeBSD</text>
</a>
</g>
</g>
<!-- Linux -->
<g id="node5" class="node">
<title>Linux</title>
<g id="a_node5"><a xlink:href="https://unknown.com/" xlink:title="Linux">
<polygon fill="lightgrey" stroke="black" points="628.5,-108 572.5,-108 572.5,-72 628.5,-72 628.5,-108"/>
<text text-anchor="middle" x="600.5" y="-86.3" font-family="Times,serif" font-size="14.00">Linux</text>
</a>
</g>
</g>
<!-- MulleFoundationBase -->
<g id="node6" class="node">
<title>MulleFoundationBase</title>
<g id="a_node6"><a xlink:href="https://github.com/MulleFoundation/MulleFoundationBase" xlink:title="MulleFoundationBase">
<polygon fill="lightgrey" stroke="black" points="2280.5,-180 2108.5,-180 2108.5,-144 2280.5,-144 2280.5,-180"/>
<text text-anchor="middle" x="2194.5" y="-158.3" font-family="Times,serif" font-size="14.00">MulleFoundationBase</text>
</a>
</g>
</g>
<!-- MulleObjC -->
<g id="node7" class="node">
<title>MulleObjC</title>
<g id="a_node7"><a xlink:href="https://github.com/mulle-objc/MulleObjC" xlink:title="MulleObjC">
<polygon fill="lightgrey" stroke="black" points="1000.5,-108 908.5,-108 908.5,-72 1000.5,-72 1000.5,-108"/>
<text text-anchor="middle" x="954.5" y="-86.3" font-family="Times,serif" font-size="14.00">MulleObjC</text>
</a>
</g>
</g>
<!-- MulleFoundationBase&#45;&gt;MulleObjC -->
<g id="edge1" class="edge">
<title>MulleFoundationBase&#45;&gt;MulleObjC</title>
<path fill="none" stroke="black" d="M2108.25,-159.99C1875.93,-156.83 1239.76,-145.1 1010.46,-107.83"/>
<polygon fill="black" stroke="black" points="1010.95,-104.37 1000.5,-106.15 1009.78,-111.27 1010.95,-104.37"/>
</g>
<!-- MulleObjCArchiverFoundation -->
<g id="node8" class="node">
<title>MulleObjCArchiverFoundation</title>
<g id="a_node8"><a xlink:href="https://github.com/MulleFoundation/MulleObjCArchiverFoundation@*" xlink:title="MulleObjCArchiverFoundation">
<polygon fill="lightgrey" stroke="black" points="1252,-108 1019,-108 1019,-72 1252,-72 1252,-108"/>
<text text-anchor="middle" x="1135.5" y="-86.3" font-family="Times,serif" font-size="14.00">MulleObjCArchiverFoundation</text>
</a>
</g>
</g>
<!-- MulleFoundationBase&#45;&gt;MulleObjCArchiverFoundation -->
<g id="edge2" class="edge">
<title>MulleFoundationBase&#45;&gt;MulleObjCArchiverFoundation</title>
<path fill="none" stroke="black" d="M2108.37,-158.37C1945.26,-152.9 1579.87,-138.28 1262.56,-108.16"/>
<polygon fill="black" stroke="black" points="1262.53,-104.64 1252.24,-107.17 1261.86,-111.61 1262.53,-104.64"/>
</g>
<!-- MulleObjCContainerFoundation -->
<g id="node9" class="node">
<title>MulleObjCContainerFoundation</title>
<g id="a_node9"><a xlink:href="https://github.com/MulleFoundation/MulleObjCContainerFoundation@*" xlink:title="MulleObjCContainerFoundation">
<polygon fill="lightgrey" stroke="black" points="1513,-108 1270,-108 1270,-72 1513,-72 1513,-108"/>
<text text-anchor="middle" x="1391.5" y="-86.3" font-family="Times,serif" font-size="14.00">MulleObjCContainerFoundation</text>
</a>
</g>
</g>
<!-- MulleFoundationBase&#45;&gt;MulleObjCContainerFoundation -->
<g id="edge3" class="edge">
<title>MulleFoundationBase&#45;&gt;MulleObjCContainerFoundation</title>
<path fill="none" stroke="black" d="M2108.32,-155.64C1982.11,-147.47 1739.39,-130.55 1523.21,-108.15"/>
<polygon fill="black" stroke="black" points="1523.58,-104.67 1513.27,-107.12 1522.85,-111.63 1523.58,-104.67"/>
</g>
<!-- MulleObjCKVCFoundation -->
<g id="node10" class="node">
<title>MulleObjCKVCFoundation</title>
<g id="a_node10"><a xlink:href="https://github.com/MulleFoundation/MulleObjCKVCFoundation@*" xlink:title="MulleObjCKVCFoundation">
<polygon fill="lightgrey" stroke="black" points="1734,-108 1531,-108 1531,-72 1734,-72 1734,-108"/>
<text text-anchor="middle" x="1632.5" y="-86.3" font-family="Times,serif" font-size="14.00">MulleObjCKVCFoundation</text>
</a>
</g>
</g>
<!-- MulleFoundationBase&#45;&gt;MulleObjCKVCFoundation -->
<g id="edge4" class="edge">
<title>MulleFoundationBase&#45;&gt;MulleObjCKVCFoundation</title>
<path fill="none" stroke="black" d="M2108.35,-151.78C2019.72,-142.09 1877.41,-125.96 1744.09,-108.05"/>
<polygon fill="black" stroke="black" points="1744.48,-104.57 1734.1,-106.71 1743.55,-111.51 1744.48,-104.57"/>
</g>
<!-- MulleObjCLockFoundation -->
<g id="node11" class="node">
<title>MulleObjCLockFoundation</title>
<g id="a_node11"><a xlink:href="https://github.com/MulleFoundation/MulleObjCLockFoundation@*" xlink:title="MulleObjCLockFoundation">
<polygon fill="lightgrey" stroke="black" points="1958.5,-108 1752.5,-108 1752.5,-72 1958.5,-72 1958.5,-108"/>
<text text-anchor="middle" x="1855.5" y="-86.3" font-family="Times,serif" font-size="14.00">MulleObjCLockFoundation</text>
</a>
</g>
</g>
<!-- MulleFoundationBase&#45;&gt;MulleObjCLockFoundation -->
<g id="edge5" class="edge">
<title>MulleFoundationBase&#45;&gt;MulleObjCLockFoundation</title>
<path fill="none" stroke="black" d="M2112,-143.97C2062.49,-133.74 1999.38,-120.71 1948.15,-110.13"/>
<polygon fill="black" stroke="black" points="1948.57,-106.64 1938.07,-108.05 1947.16,-113.5 1948.57,-106.64"/>
</g>
<!-- MulleObjCMathFoundation -->
<g id="node12" class="node">
<title>MulleObjCMathFoundation</title>
<g id="a_node12"><a xlink:href="https://github.com/MulleFoundation/MulleObjCMathFoundation@*" xlink:title="MulleObjCMathFoundation">
<polygon fill="lightgrey" stroke="black" points="2186.5,-108 1976.5,-108 1976.5,-72 2186.5,-72 2186.5,-108"/>
<text text-anchor="middle" x="2081.5" y="-86.3" font-family="Times,serif" font-size="14.00">MulleObjCMathFoundation</text>
</a>
</g>
</g>
<!-- MulleFoundationBase&#45;&gt;MulleObjCMathFoundation -->
<g id="edge6" class="edge">
<title>MulleFoundationBase&#45;&gt;MulleObjCMathFoundation</title>
<path fill="none" stroke="black" d="M2166.86,-143.88C2152.08,-134.72 2133.71,-123.34 2117.8,-113.48"/>
<polygon fill="black" stroke="black" points="2119.59,-110.48 2109.25,-108.19 2115.91,-116.43 2119.59,-110.48"/>
</g>
<!-- MulleObjCPlistFoundation -->
<g id="node13" class="node">
<title>MulleObjCPlistFoundation</title>
<g id="a_node13"><a xlink:href="https://github.com/MulleFoundation/MulleObjCPlistFoundation@*" xlink:title="MulleObjCPlistFoundation">
<polygon fill="lightgrey" stroke="black" points="2410,-108 2205,-108 2205,-72 2410,-72 2410,-108"/>
<text text-anchor="middle" x="2307.5" y="-86.3" font-family="Times,serif" font-size="14.00">MulleObjCPlistFoundation</text>
</a>
</g>
</g>
<!-- MulleFoundationBase&#45;&gt;MulleObjCPlistFoundation -->
<g id="edge7" class="edge">
<title>MulleFoundationBase&#45;&gt;MulleObjCPlistFoundation</title>
<path fill="none" stroke="black" d="M2222.14,-143.88C2236.92,-134.72 2255.29,-123.34 2271.2,-113.48"/>
<polygon fill="black" stroke="black" points="2273.09,-116.43 2279.75,-108.19 2269.41,-110.48 2273.09,-116.43"/>
</g>
<!-- MulleObjCStandardFoundation -->
<g id="node14" class="node">
<title>MulleObjCStandardFoundation</title>
<g id="a_node14"><a xlink:href="https://github.com/MulleFoundation/MulleObjCStandardFoundation@*" xlink:title="MulleObjCStandardFoundation">
<polygon fill="lightgrey" stroke="black" points="2667,-108 2428,-108 2428,-72 2667,-72 2667,-108"/>
<text text-anchor="middle" x="2547.5" y="-86.3" font-family="Times,serif" font-size="14.00">MulleObjCStandardFoundation</text>
</a>
</g>
</g>
<!-- MulleFoundationBase&#45;&gt;MulleObjCStandardFoundation -->
<g id="edge8" class="edge">
<title>MulleFoundationBase&#45;&gt;MulleObjCStandardFoundation</title>
<path fill="none" stroke="black" d="M2280.4,-143.97C2332.18,-133.7 2398.23,-120.6 2451.69,-110"/>
<polygon fill="black" stroke="black" points="2452.39,-113.43 2461.52,-108.05 2451.03,-106.56 2452.39,-113.43"/>
</g>
<!-- MulleObjCTimeFoundation -->
<g id="node15" class="node">
<title>MulleObjCTimeFoundation</title>
<g id="a_node15"><a xlink:href="https://github.com/MulleFoundation/MulleObjCTimeFoundation@*" xlink:title="MulleObjCTimeFoundation">
<polygon fill="lightgrey" stroke="black" points="2893.5,-108 2685.5,-108 2685.5,-72 2893.5,-72 2893.5,-108"/>
<text text-anchor="middle" x="2789.5" y="-86.3" font-family="Times,serif" font-size="14.00">MulleObjCTimeFoundation</text>
</a>
</g>
</g>
<!-- MulleFoundationBase&#45;&gt;MulleObjCTimeFoundation -->
<g id="edge9" class="edge">
<title>MulleFoundationBase&#45;&gt;MulleObjCTimeFoundation</title>
<path fill="none" stroke="black" d="M2280.64,-152.51C2376.98,-142.79 2537.61,-125.87 2675.5,-108 2675.6,-107.99 2675.7,-107.97 2675.81,-107.96"/>
<polygon fill="black" stroke="black" points="2676,-111.46 2685.46,-106.68 2675.08,-104.53 2676,-111.46"/>
</g>
<!-- MulleObjCUnicodeFoundation -->
<g id="node16" class="node">
<title>MulleObjCUnicodeFoundation</title>
<g id="a_node16"><a xlink:href="https://github.com/MulleFoundation/MulleObjCUnicodeFoundation@*" xlink:title="MulleObjCUnicodeFoundation">
<polygon fill="lightgrey" stroke="black" points="3143,-108 2912,-108 2912,-72 3143,-72 3143,-108"/>
<text text-anchor="middle" x="3027.5" y="-86.3" font-family="Times,serif" font-size="14.00">MulleObjCUnicodeFoundation</text>
</a>
</g>
</g>
<!-- MulleFoundationBase&#45;&gt;MulleObjCUnicodeFoundation -->
<g id="edge10" class="edge">
<title>MulleFoundationBase&#45;&gt;MulleObjCUnicodeFoundation</title>
<path fill="none" stroke="black" d="M2280.75,-156.23C2412.27,-148.58 2671.06,-132.06 2901.5,-108.07"/>
<polygon fill="black" stroke="black" points="2902.17,-111.52 2911.76,-106.99 2901.44,-104.55 2902.17,-111.52"/>
</g>
<!-- MulleObjCUUIDFoundation -->
<g id="node17" class="node">
<title>MulleObjCUUIDFoundation</title>
<g id="a_node17"><a xlink:href="https://github.com/MulleFoundation/MulleObjCUUIDFoundation@*" xlink:title="MulleObjCUUIDFoundation">
<polygon fill="lightgrey" stroke="black" points="3374,-108 3161,-108 3161,-72 3374,-72 3374,-108"/>
<text text-anchor="middle" x="3267.5" y="-86.3" font-family="Times,serif" font-size="14.00">MulleObjCUUIDFoundation</text>
</a>
</g>
</g>
<!-- MulleFoundationBase&#45;&gt;MulleObjCUUIDFoundation -->
<g id="edge11" class="edge">
<title>MulleFoundationBase&#45;&gt;MulleObjCUUIDFoundation</title>
<path fill="none" stroke="black" d="M2280.81,-158.83C2447.09,-154.07 2823.52,-140.54 3150.58,-108.03"/>
<polygon fill="black" stroke="black" points="3151.12,-111.5 3160.72,-107.02 3150.43,-104.53 3151.12,-111.5"/>
</g>
<!-- MulleObjCValueFoundation -->
<g id="node18" class="node">
<title>MulleObjCValueFoundation</title>
<g id="a_node18"><a xlink:href="https://github.com/MulleFoundation/MulleObjCValueFoundation@*" xlink:title="MulleObjCValueFoundation">
<polygon fill="lightgrey" stroke="black" points="3603.5,-108 3391.5,-108 3391.5,-72 3603.5,-72 3603.5,-108"/>
<text text-anchor="middle" x="3497.5" y="-86.3" font-family="Times,serif" font-size="14.00">MulleObjCValueFoundation</text>
</a>
</g>
</g>
<!-- MulleFoundationBase&#45;&gt;MulleObjCValueFoundation -->
<g id="edge12" class="edge">
<title>MulleFoundationBase&#45;&gt;MulleObjCValueFoundation</title>
<path fill="none" stroke="black" d="M2280.51,-160.21C2475.01,-157.78 2963.69,-147.94 3381.19,-108.17"/>
<polygon fill="black" stroke="black" points="3381.73,-111.64 3391.35,-107.2 3381.06,-104.67 3381.73,-111.64"/>
</g>
<!-- mulle&#45;objc&#45;cc -->
<g id="node22" class="node">
<title>mulle&#45;objc&#45;cc</title>
<g id="a_node22"><a xlink:href="https://github.com/mulle-cc/mulle-objc-cc" xlink:title="mulle&#45;objc&#45;cc">
<polygon fill="lightgrey" stroke="black" points="866.5,-36 756.5,-36 756.5,0 866.5,0 866.5,-36"/>
<text text-anchor="middle" x="811.5" y="-14.3" font-family="Times,serif" font-size="14.00">mulle&#45;objc&#45;cc</text>
</a>
</g>
</g>
<!-- MulleObjC&#45;&gt;mulle&#45;objc&#45;cc -->
<g id="edge16" class="edge">
<title>MulleObjC&#45;&gt;mulle&#45;objc&#45;cc</title>
<path fill="none" stroke="black" d="M919.52,-71.88C900.3,-62.47 876.27,-50.71 855.76,-40.67"/>
<polygon fill="black" stroke="black" points="857.14,-37.44 846.62,-36.19 854.06,-43.73 857.14,-37.44"/>
</g>
<!-- mulle&#45;objc&#45;debug -->
<g id="node23" class="node">
<title>mulle&#45;objc&#45;debug</title>
<g id="a_node23"><a xlink:href="https://github.com/mulle-objc/mulle-objc-debug" xlink:title="mulle&#45;objc&#45;debug">
<polygon fill="lightgrey" stroke="black" points="1024,-36 885,-36 885,0 1024,0 1024,-36"/>
<text text-anchor="middle" x="954.5" y="-14.3" font-family="Times,serif" font-size="14.00">mulle&#45;objc&#45;debug</text>
</a>
</g>
</g>
<!-- MulleObjC&#45;&gt;mulle&#45;objc&#45;debug -->
<g id="edge17" class="edge">
<title>MulleObjC&#45;&gt;mulle&#45;objc&#45;debug</title>
<path fill="none" stroke="black" d="M954.5,-71.7C954.5,-63.98 954.5,-54.71 954.5,-46.11"/>
<polygon fill="black" stroke="black" points="958,-46.1 954.5,-36.1 951,-46.1 958,-46.1"/>
</g>
<!-- mulle&#45;objc&#45;runtime -->
<g id="node24" class="node">
<title>mulle&#45;objc&#45;runtime</title>
<g id="a_node24"><a xlink:href="https://github.com/mulle-objc/mulle-objc-runtime" xlink:title="mulle&#45;objc&#45;runtime">
<polygon fill="lightgrey" stroke="black" points="1194.5,-36 1042.5,-36 1042.5,0 1194.5,0 1194.5,-36"/>
<text text-anchor="middle" x="1118.5" y="-14.3" font-family="Times,serif" font-size="14.00">mulle&#45;objc&#45;runtime</text>
</a>
</g>
</g>
<!-- MulleObjC&#45;&gt;mulle&#45;objc&#45;runtime -->
<g id="edge18" class="edge">
<title>MulleObjC&#45;&gt;mulle&#45;objc&#45;runtime</title>
<path fill="none" stroke="black" d="M994.62,-71.88C1017.14,-62.26 1045.42,-50.19 1069.27,-40.01"/>
<polygon fill="black" stroke="black" points="1070.69,-43.21 1078.51,-36.07 1067.94,-36.77 1070.69,-43.21"/>
</g>
<!-- MulleObjCOSFoundation&#45;&gt;BSD -->
<g id="edge19" class="edge">
<title>MulleObjCOSFoundation&#45;&gt;BSD</title>
<path fill="none" stroke="black" d="M510.02,-143.97C471.56,-135.66 426.28,-124.48 378.38,-107.97"/>
<polygon fill="black" stroke="black" points="379.37,-104.61 368.77,-104.6 377.05,-111.21 379.37,-104.61"/>
</g>
<!-- MulleObjCOSFoundation&#45;&gt;Darwin -->
<g id="edge20" class="edge">
<title>MulleObjCOSFoundation&#45;&gt;Darwin</title>
<path fill="none" stroke="black" d="M556.04,-143.9C531.42,-134.4 500.04,-122.27 464.41,-108.34"/>
<polygon fill="black" stroke="black" points="465.35,-104.95 454.76,-104.57 462.8,-111.47 465.35,-104.95"/>
</g>
<!-- MulleObjCOSFoundation&#45;&gt;FreeBSD -->
<g id="edge21" class="edge">
<title>MulleObjCOSFoundation&#45;&gt;FreeBSD</title>
<path fill="none" stroke="black" d="M578.99,-143.7C568.04,-134.88 554.55,-124.03 542.68,-114.47"/>
<polygon fill="black" stroke="black" points="544.74,-111.65 534.76,-108.1 540.36,-117.1 544.74,-111.65"/>
</g>
<!-- MulleObjCOSFoundation&#45;&gt;Linux -->
<g id="edge22" class="edge">
<title>MulleObjCOSFoundation&#45;&gt;Linux</title>
<path fill="none" stroke="black" d="M600.5,-143.7C600.5,-135.98 600.5,-126.71 600.5,-118.11"/>
<polygon fill="black" stroke="black" points="604,-118.1 600.5,-108.1 597,-118.1 604,-118.1"/>
</g>
<!-- OSBase -->
<g id="node25" class="node">
<title>OSBase</title>
<g id="a_node25"><a xlink:href="https://unknown.com/" xlink:title="OSBase">
<polygon fill="lightgrey" stroke="black" points="718.5,-108 646.5,-108 646.5,-72 718.5,-72 718.5,-108"/>
<text text-anchor="middle" x="682.5" y="-86.3" font-family="Times,serif" font-size="14.00">OSBase</text>
</a>
</g>
</g>
<!-- MulleObjCOSFoundation&#45;&gt;OSBase -->
<g id="edge23" class="edge">
<title>MulleObjCOSFoundation&#45;&gt;OSBase</title>
<path fill="none" stroke="black" d="M620.77,-143.7C631,-134.97 643.56,-124.24 654.68,-114.75"/>
<polygon fill="black" stroke="black" points="657.13,-117.26 662.46,-108.1 652.59,-111.94 657.13,-117.26"/>
</g>
<!-- Posix -->
<g id="node26" class="node">
<title>Posix</title>
<g id="a_node26"><a xlink:href="https://unknown.com/" xlink:title="Posix">
<polygon fill="lightgrey" stroke="black" points="790.5,-108 736.5,-108 736.5,-72 790.5,-72 790.5,-108"/>
<text text-anchor="middle" x="763.5" y="-86.3" font-family="Times,serif" font-size="14.00">Posix</text>
</a>
</g>
</g>
<!-- MulleObjCOSFoundation&#45;&gt;Posix -->
<g id="edge24" class="edge">
<title>MulleObjCOSFoundation&#45;&gt;Posix</title>
<path fill="none" stroke="black" d="M642.75,-143.93C665.43,-134.65 694.02,-122.73 727.01,-108.13"/>
<polygon fill="black" stroke="black" points="728.72,-111.2 736.43,-103.94 725.87,-104.81 728.72,-111.2"/>
</g>
<!-- Windows -->
<g id="node27" class="node">
<title>Windows</title>
<g id="a_node27"><a xlink:href="https://unknown.com/" xlink:title="Windows">
<polygon fill="lightgrey" stroke="black" points="890,-108 809,-108 809,-72 890,-72 890,-108"/>
<text text-anchor="middle" x="849.5" y="-86.3" font-family="Times,serif" font-size="14.00">Windows</text>
</a>
</g>
</g>
<!-- MulleObjCOSFoundation&#45;&gt;Windows -->
<g id="edge25" class="edge">
<title>MulleObjCOSFoundation&#45;&gt;Windows</title>
<path fill="none" stroke="black" d="M668.98,-143.98C705.1,-134.72 750.31,-122.67 799.11,-108.02"/>
<polygon fill="black" stroke="black" points="800.36,-111.3 808.91,-105.05 798.33,-104.6 800.36,-111.3"/>
</g>
<!-- src/OSBase -->
<g id="node28" class="node">
<title>src/OSBase</title>
<polygon fill="lightgrey" stroke="black" points="2243.5,-252 2145.5,-252 2145.5,-216 2243.5,-216 2243.5,-252"/>
<text text-anchor="middle" x="2194.5" y="-230.3" font-family="Times,serif" font-size="14.00">src/OSBase</text>
</g>
<!-- src/OSBase&#45;&gt;MulleFoundationBase -->
<g id="edge26" class="edge">
<title>src/OSBase&#45;&gt;MulleFoundationBase</title>
<path fill="none" stroke="black" d="M2194.5,-215.7C2194.5,-207.98 2194.5,-198.71 2194.5,-190.11"/>
<polygon fill="black" stroke="black" points="2198,-190.1 2194.5,-180.1 2191,-190.1 2198,-190.1"/>
</g>
</g>
</svg>
