<?xml version="1.0" encoding="UTF-8" standalone="no"?>
<!DOCTYPE svg PUBLIC "-//W3C//DTD SVG 1.1//EN"
 "http://www.w3.org/Graphics/SVG/1.1/DTD/svg11.dtd">
<!-- Generated by graphviz version 2.43.0 (0)
 -->
<!-- Title: sourcetree Pages: 1 -->
<svg width="896pt" height="116pt"
 viewBox="0.00 0.00 896.00 116.00" xmlns="http://www.w3.org/2000/svg" xmlns:xlink="http://www.w3.org/1999/xlink">
<g id="graph0" class="graph" transform="scale(1 1) rotate(0) translate(4 112)">
<title>sourcetree</title>
<polygon fill="white" stroke="transparent" points="-4,4 -4,-112 892,-112 892,4 -4,4"/>
<!-- MulleFoundation -->
<g id="node1" class="node">
<title>MulleFoundation</title>
<polygon fill="yellow" stroke="black" points="503.5,-108 366.5,-108 366.5,-72 503.5,-72 503.5,-108"/>
<text text-anchor="middle" x="435" y="-86.3" font-family="Times,serif" font-size="14.00">MulleFoundation</text>
</g>
<!-- MulleFoundationBase -->
<g id="node2" class="node">
<title>MulleFoundationBase</title>
<g id="a_node2"><a xlink:href="https://github.com/MulleFoundation/MulleFoundationBase" xlink:title="MulleFoundationBase">
<polygon fill="lightgrey" stroke="black" points="172,-36 0,-36 0,0 172,0 172,-36"/>
<text text-anchor="middle" x="86" y="-14.3" font-family="Times,serif" font-size="14.00">MulleFoundationBase</text>
</a>
</g>
</g>
<!-- MulleFoundation&#45;&gt;MulleFoundationBase -->
<g id="edge1" class="edge">
<title>MulleFoundation&#45;&gt;MulleFoundationBase</title>
<path fill="none" stroke="black" d="M366.47,-75.25C313.55,-64.64 239.7,-49.83 181.07,-38.07"/>
<polygon fill="black" stroke="black" points="181.55,-34.59 171.05,-36.06 180.17,-41.46 181.55,-34.59"/>
</g>
<!-- MulleObjCCalendarFoundation -->
<g id="node3" class="node">
<title>MulleObjCCalendarFoundation</title>
<g id="a_node3"><a xlink:href="https://github.com/MulleFoundation/MulleObjCCalendarFoundation" xlink:title="MulleObjCCalendarFoundation">
<polygon fill="lightgrey" stroke="black" points="427.5,-36 190.5,-36 190.5,0 427.5,0 427.5,-36"/>
<text text-anchor="middle" x="309" y="-14.3" font-family="Times,serif" font-size="14.00">MulleObjCCalendarFoundation</text>
</a>
</g>
</g>
<!-- MulleFoundation&#45;&gt;MulleObjCCalendarFoundation -->
<g id="edge2" class="edge">
<title>MulleFoundation&#45;&gt;MulleObjCCalendarFoundation</title>
<path fill="none" stroke="black" d="M404.18,-71.88C387.55,-62.64 366.84,-51.13 348.98,-41.21"/>
<polygon fill="black" stroke="black" points="350.38,-37.99 339.94,-36.19 346.98,-44.11 350.38,-37.99"/>
</g>
<!-- MulleObjCDecimalFoundation -->
<g id="node4" class="node">
<title>MulleObjCDecimalFoundation</title>
<g id="a_node4"><a xlink:href="https://github.com/MulleFoundation/MulleObjCDecimalFoundation" xlink:title="MulleObjCDecimalFoundation">
<polygon fill="lightgrey" stroke="black" points="676,-36 446,-36 446,0 676,0 676,-36"/>
<text text-anchor="middle" x="561" y="-14.3" font-family="Times,serif" font-size="14.00">MulleObjCDecimalFoundation</text>
</a>
</g>
</g>
<!-- MulleFoundation&#45;&gt;MulleObjCDecimalFoundation -->
<g id="edge3" class="edge">
<title>MulleFoundation&#45;&gt;MulleObjCDecimalFoundation</title>
<path fill="none" stroke="black" d="M465.82,-71.88C482.45,-62.64 503.16,-51.13 521.02,-41.21"/>
<polygon fill="black" stroke="black" points="523.02,-44.11 530.06,-36.19 519.62,-37.99 523.02,-44.11"/>
</g>
<!-- MulleObjCOSFoundation -->
<g id="node5" class="node">
<title>MulleObjCOSFoundation</title>
<g id="a_node5"><a xlink:href="https://github.com/MulleFoundation/MulleObjCOSFoundation" xlink:title="MulleObjCOSFoundation">
<polygon fill="lightgrey" stroke="black" points="888,-36 694,-36 694,0 888,0 888,-36"/>
<text text-anchor="middle" x="791" y="-14.3" font-family="Times,serif" font-size="14.00">MulleObjCOSFoundation</text>
</a>
</g>
</g>
<!-- MulleFoundation&#45;&gt;MulleObjCOSFoundation -->
<g id="edge4" class="edge">
<title>MulleFoundation&#45;&gt;MulleObjCOSFoundation</title>
<path fill="none" stroke="black" d="M503.64,-75.5C557.81,-64.85 634.03,-49.87 694.36,-38"/>
<polygon fill="black" stroke="black" points="695.15,-41.41 704.28,-36.05 693.8,-34.55 695.15,-41.41"/>
</g>
</g>
</svg>
