<?xml version="1.0" encoding="UTF-8" standalone="no"?>
<!DOCTYPE svg PUBLIC "-//W3C//DTD SVG 1.1//EN"
 "http://www.w3.org/Graphics/SVG/1.1/DTD/svg11.dtd">
<!-- Generated by graphviz version 2.43.0 (0)
 -->
<!-- Title: sourcetree Pages: 1 -->
<svg width="1832pt" height="404pt"
 viewBox="0.00 0.00 1832.00 404.00" xmlns="http://www.w3.org/2000/svg" xmlns:xlink="http://www.w3.org/1999/xlink">
<g id="graph0" class="graph" transform="scale(1 1) rotate(0) translate(4 400)">
<title>sourcetree</title>
<polygon fill="white" stroke="transparent" points="-4,4 -4,-400 1828,-400 1828,4 -4,4"/>
<!-- MulleFoundation -->
<g id="node1" class="node">
<title>MulleFoundation</title>
<polygon fill="yellow" stroke="black" points="925,-396 788,-396 788,-360 925,-360 925,-396"/>
<text text-anchor="middle" x="856.5" y="-374.3" font-family="Times,serif" font-size="14.00">MulleFoundation</text>
</g>
<!-- MulleObjCArchiverFoundation -->
<g id="node2" class="node">
<title>MulleObjCArchiverFoundation</title>
<polygon fill="lightgrey" stroke="black" points="233,-324 0,-324 0,-288 233,-288 233,-324"/>
<text text-anchor="middle" x="116.5" y="-302.3" font-family="Times,serif" font-size="14.00">MulleObjCArchiverFoundation</text>
</g>
<!-- MulleFoundation&#45;&gt;MulleObjCArchiverFoundation -->
<g id="edge1" class="edge">
<title>MulleFoundation&#45;&gt;MulleObjCArchiverFoundation</title>
<path fill="none" stroke="black" d="M787.68,-372.18C675.7,-364.09 446.87,-346.54 243.23,-324.17"/>
<polygon fill="black" stroke="black" points="243.57,-320.68 233.25,-323.06 242.8,-327.64 243.57,-320.68"/>
</g>
<!-- MulleObjCCalendarFoundation -->
<g id="node3" class="node">
<title>MulleObjCCalendarFoundation</title>
<polygon fill="lightgrey" stroke="black" points="488,-324 251,-324 251,-288 488,-288 488,-324"/>
<text text-anchor="middle" x="369.5" y="-302.3" font-family="Times,serif" font-size="14.00">MulleObjCCalendarFoundation</text>
</g>
<!-- MulleFoundation&#45;&gt;MulleObjCCalendarFoundation -->
<g id="edge2" class="edge">
<title>MulleFoundation&#45;&gt;MulleObjCCalendarFoundation</title>
<path fill="none" stroke="black" d="M787.76,-367.12C712.75,-356.34 590.99,-338.84 498.13,-325.49"/>
<polygon fill="black" stroke="black" points="498.5,-322.01 488.1,-324.05 497.5,-328.93 498.5,-322.01"/>
</g>
<!-- MulleObjCDecimalFoundation -->
<g id="node4" class="node">
<title>MulleObjCDecimalFoundation</title>
<polygon fill="lightgrey" stroke="black" points="736.5,-324 506.5,-324 506.5,-288 736.5,-288 736.5,-324"/>
<text text-anchor="middle" x="621.5" y="-302.3" font-family="Times,serif" font-size="14.00">MulleObjCDecimalFoundation</text>
</g>
<!-- MulleFoundation&#45;&gt;MulleObjCDecimalFoundation -->
<g id="edge3" class="edge">
<title>MulleFoundation&#45;&gt;MulleObjCDecimalFoundation</title>
<path fill="none" stroke="black" d="M799.31,-359.97C765.91,-350.01 723.58,-337.41 688.6,-326.99"/>
<polygon fill="black" stroke="black" points="689.53,-323.61 678.94,-324.11 687.53,-330.32 689.53,-323.61"/>
</g>
<!-- MulleObjCKVCFoundation -->
<g id="node5" class="node">
<title>MulleObjCKVCFoundation</title>
<polygon fill="lightgrey" stroke="black" points="958,-324 755,-324 755,-288 958,-288 958,-324"/>
<text text-anchor="middle" x="856.5" y="-302.3" font-family="Times,serif" font-size="14.00">MulleObjCKVCFoundation</text>
</g>
<!-- MulleFoundation&#45;&gt;MulleObjCKVCFoundation -->
<g id="edge4" class="edge">
<title>MulleFoundation&#45;&gt;MulleObjCKVCFoundation</title>
<path fill="none" stroke="black" d="M856.5,-359.7C856.5,-351.98 856.5,-342.71 856.5,-334.11"/>
<polygon fill="black" stroke="black" points="860,-334.1 856.5,-324.1 853,-334.1 860,-334.1"/>
</g>
<!-- MulleObjCMathFoundation -->
<g id="node6" class="node">
<title>MulleObjCMathFoundation</title>
<polygon fill="lightgrey" stroke="black" points="1186.5,-324 976.5,-324 976.5,-288 1186.5,-288 1186.5,-324"/>
<text text-anchor="middle" x="1081.5" y="-302.3" font-family="Times,serif" font-size="14.00">MulleObjCMathFoundation</text>
</g>
<!-- MulleFoundation&#45;&gt;MulleObjCMathFoundation -->
<g id="edge5" class="edge">
<title>MulleFoundation&#45;&gt;MulleObjCMathFoundation</title>
<path fill="none" stroke="black" d="M911.25,-359.97C943.1,-350.06 983.42,-337.51 1016.83,-327.12"/>
<polygon fill="black" stroke="black" points="1017.99,-330.42 1026.5,-324.11 1015.91,-323.74 1017.99,-330.42"/>
</g>
<!-- MulleObjCOSFoundation -->
<g id="node7" class="node">
<title>MulleObjCOSFoundation</title>
<polygon fill="lightgrey" stroke="black" points="1398.5,-324 1204.5,-324 1204.5,-288 1398.5,-288 1398.5,-324"/>
<text text-anchor="middle" x="1301.5" y="-302.3" font-family="Times,serif" font-size="14.00">MulleObjCOSFoundation</text>
</g>
<!-- MulleFoundation&#45;&gt;MulleObjCOSFoundation -->
<g id="edge6" class="edge">
<title>MulleFoundation&#45;&gt;MulleObjCOSFoundation</title>
<path fill="none" stroke="black" d="M925.01,-366.37C991.29,-356.07 1094.86,-339.92 1194.52,-324.15"/>
<polygon fill="black" stroke="black" points="1195.13,-327.6 1204.46,-322.58 1194.03,-320.69 1195.13,-327.6"/>
</g>
<!-- MulleObjCUnicodeFoundation -->
<g id="node8" class="node">
<title>MulleObjCUnicodeFoundation</title>
<polygon fill="lightgrey" stroke="black" points="1647,-324 1416,-324 1416,-288 1647,-288 1647,-324"/>
<text text-anchor="middle" x="1531.5" y="-302.3" font-family="Times,serif" font-size="14.00">MulleObjCUnicodeFoundation</text>
</g>
<!-- MulleFoundation&#45;&gt;MulleObjCUnicodeFoundation -->
<g id="edge7" class="edge">
<title>MulleFoundation&#45;&gt;MulleObjCUnicodeFoundation</title>
<path fill="none" stroke="black" d="M925.31,-371.28C1027.76,-362.56 1226.69,-344.87 1405.56,-324.2"/>
<polygon fill="black" stroke="black" points="1406.15,-327.66 1415.68,-323.03 1405.34,-320.71 1406.15,-327.66"/>
</g>
<!-- src/BSD -->
<g id="node9" class="node">
<title>src/BSD</title>
<polygon fill="lightgrey" stroke="black" points="1003.5,-252 929.5,-252 929.5,-216 1003.5,-216 1003.5,-252"/>
<text text-anchor="middle" x="966.5" y="-230.3" font-family="Times,serif" font-size="14.00">src/BSD</text>
</g>
<!-- MulleObjCOSFoundation&#45;&gt;src/BSD -->
<g id="edge8" class="edge">
<title>MulleObjCOSFoundation&#45;&gt;src/BSD</title>
<path fill="none" stroke="black" d="M1204.29,-288.88C1135.24,-277.09 1048.77,-261.55 1013.5,-252 1013.4,-251.97 1013.3,-251.94 1013.19,-251.92"/>
<polygon fill="black" stroke="black" points="1014.1,-248.54 1003.52,-249.03 1012.1,-255.24 1014.1,-248.54"/>
</g>
<!-- src/Darwin -->
<g id="node10" class="node">
<title>src/Darwin</title>
<polygon fill="lightgrey" stroke="black" points="1117,-252 1022,-252 1022,-216 1117,-216 1117,-252"/>
<text text-anchor="middle" x="1069.5" y="-230.3" font-family="Times,serif" font-size="14.00">src/Darwin</text>
</g>
<!-- MulleObjCOSFoundation&#45;&gt;src/Darwin -->
<g id="edge9" class="edge">
<title>MulleObjCOSFoundation&#45;&gt;src/Darwin</title>
<path fill="none" stroke="black" d="M1245.04,-287.97C1209.24,-277.16 1163.06,-263.23 1127.06,-252.37"/>
<polygon fill="black" stroke="black" points="1127.77,-248.93 1117.19,-249.39 1125.75,-255.63 1127.77,-248.93"/>
</g>
<!-- src/FreeBSD -->
<g id="node11" class="node">
<title>src/FreeBSD</title>
<polygon fill="lightgrey" stroke="black" points="1242,-252 1135,-252 1135,-216 1242,-216 1242,-252"/>
<text text-anchor="middle" x="1188.5" y="-230.3" font-family="Times,serif" font-size="14.00">src/FreeBSD</text>
</g>
<!-- MulleObjCOSFoundation&#45;&gt;src/FreeBSD -->
<g id="edge10" class="edge">
<title>MulleObjCOSFoundation&#45;&gt;src/FreeBSD</title>
<path fill="none" stroke="black" d="M1273.86,-287.88C1259.08,-278.72 1240.71,-267.34 1224.8,-257.48"/>
<polygon fill="black" stroke="black" points="1226.59,-254.48 1216.25,-252.19 1222.91,-260.43 1226.59,-254.48"/>
</g>
<!-- src/Linux -->
<g id="node12" class="node">
<title>src/Linux</title>
<polygon fill="lightgrey" stroke="black" points="1343,-252 1260,-252 1260,-216 1343,-216 1343,-252"/>
<text text-anchor="middle" x="1301.5" y="-230.3" font-family="Times,serif" font-size="14.00">src/Linux</text>
</g>
<!-- MulleObjCOSFoundation&#45;&gt;src/Linux -->
<g id="edge11" class="edge">
<title>MulleObjCOSFoundation&#45;&gt;src/Linux</title>
<path fill="none" stroke="black" d="M1301.5,-287.7C1301.5,-279.98 1301.5,-270.71 1301.5,-262.11"/>
<polygon fill="black" stroke="black" points="1305,-262.1 1301.5,-252.1 1298,-262.1 1305,-262.1"/>
</g>
<!-- src/OSBase -->
<g id="node13" class="node">
<title>src/OSBase</title>
<polygon fill="lightgrey" stroke="black" points="1459.5,-252 1361.5,-252 1361.5,-216 1459.5,-216 1459.5,-252"/>
<text text-anchor="middle" x="1410.5" y="-230.3" font-family="Times,serif" font-size="14.00">src/OSBase</text>
</g>
<!-- MulleObjCOSFoundation&#45;&gt;src/OSBase -->
<g id="edge12" class="edge">
<title>MulleObjCOSFoundation&#45;&gt;src/OSBase</title>
<path fill="none" stroke="black" d="M1328.16,-287.88C1342.28,-278.81 1359.81,-267.55 1375.06,-257.76"/>
<polygon fill="black" stroke="black" points="1377.21,-260.54 1383.73,-252.19 1373.43,-254.65 1377.21,-260.54"/>
</g>
<!-- src/Posix -->
<g id="node14" class="node">
<title>src/Posix</title>
<polygon fill="lightgrey" stroke="black" points="1557.5,-252 1477.5,-252 1477.5,-216 1557.5,-216 1557.5,-252"/>
<text text-anchor="middle" x="1517.5" y="-230.3" font-family="Times,serif" font-size="14.00">src/Posix</text>
</g>
<!-- MulleObjCOSFoundation&#45;&gt;src/Posix -->
<g id="edge13" class="edge">
<title>MulleObjCOSFoundation&#45;&gt;src/Posix</title>
<path fill="none" stroke="black" d="M1356.53,-287.94C1386.85,-278.45 1425.39,-266.23 1467.74,-252.21"/>
<polygon fill="black" stroke="black" points="1469.03,-255.47 1477.42,-249 1466.82,-248.83 1469.03,-255.47"/>
</g>
<!-- src/Windows -->
<g id="node15" class="node">
<title>src/Windows</title>
<polygon fill="lightgrey" stroke="black" points="1683,-252 1576,-252 1576,-216 1683,-216 1683,-252"/>
<text text-anchor="middle" x="1629.5" y="-230.3" font-family="Times,serif" font-size="14.00">src/Windows</text>
</g>
<!-- MulleObjCOSFoundation&#45;&gt;src/Windows -->
<g id="edge14" class="edge">
<title>MulleObjCOSFoundation&#45;&gt;src/Windows</title>
<path fill="none" stroke="black" d="M1394.42,-287.98C1442.81,-278.74 1503.14,-266.65 1565.86,-252.07"/>
<polygon fill="black" stroke="black" points="1567.01,-255.4 1575.94,-249.71 1565.41,-248.58 1567.01,-255.4"/>
</g>
<!-- MulleObjCStandardFoundation -->
<g id="node16" class="node">
<title>MulleObjCStandardFoundation</title>
<polygon fill="lightgrey" stroke="black" points="1253,-180 1014,-180 1014,-144 1253,-144 1253,-180"/>
<text text-anchor="middle" x="1133.5" y="-158.3" font-family="Times,serif" font-size="14.00">MulleObjCStandardFoundation</text>
</g>
<!-- src/OSBase&#45;&gt;MulleObjCStandardFoundation -->
<g id="edge24" class="edge">
<title>src/OSBase&#45;&gt;MulleObjCStandardFoundation</title>
<path fill="none" stroke="black" d="M1361.5,-218.46C1358.46,-217.61 1355.44,-216.79 1352.5,-216 1308.16,-204.14 1258.46,-192.02 1217.63,-182.37"/>
<polygon fill="black" stroke="black" points="1218.26,-178.92 1207.72,-180.03 1216.65,-185.74 1218.26,-178.92"/>
</g>
<!-- mulle&#45;mmap -->
<g id="node23" class="node">
<title>mulle&#45;mmap</title>
<polygon fill="lightgrey" stroke="black" points="1376,-180 1271,-180 1271,-144 1376,-144 1376,-180"/>
<text text-anchor="middle" x="1323.5" y="-158.3" font-family="Times,serif" font-size="14.00">mulle&#45;mmap</text>
</g>
<!-- src/OSBase&#45;&gt;mulle&#45;mmap -->
<g id="edge21" class="edge">
<title>src/OSBase&#45;&gt;mulle&#45;mmap</title>
<path fill="none" stroke="black" d="M1388.99,-215.7C1378.04,-206.88 1364.55,-196.03 1352.68,-186.47"/>
<polygon fill="black" stroke="black" points="1354.74,-183.65 1344.76,-180.1 1350.36,-189.1 1354.74,-183.65"/>
</g>
<!-- MulleObjCLockFoundation -->
<g id="node24" class="node">
<title>MulleObjCLockFoundation</title>
<polygon fill="lightgrey" stroke="black" points="1600.5,-180 1394.5,-180 1394.5,-144 1600.5,-144 1600.5,-180"/>
<text text-anchor="middle" x="1497.5" y="-158.3" font-family="Times,serif" font-size="14.00">MulleObjCLockFoundation</text>
</g>
<!-- src/OSBase&#45;&gt;MulleObjCLockFoundation -->
<g id="edge22" class="edge">
<title>src/OSBase&#45;&gt;MulleObjCLockFoundation</title>
<path fill="none" stroke="black" d="M1432.01,-215.7C1442.96,-206.88 1456.45,-196.03 1468.32,-186.47"/>
<polygon fill="black" stroke="black" points="1470.64,-189.1 1476.24,-180.1 1466.26,-183.65 1470.64,-189.1"/>
</g>
<!-- MulleObjCPlistFoundation -->
<g id="node25" class="node">
<title>MulleObjCPlistFoundation</title>
<polygon fill="lightgrey" stroke="black" points="1824,-180 1619,-180 1619,-144 1824,-144 1824,-180"/>
<text text-anchor="middle" x="1721.5" y="-158.3" font-family="Times,serif" font-size="14.00">MulleObjCPlistFoundation</text>
</g>
<!-- src/OSBase&#45;&gt;MulleObjCPlistFoundation -->
<g id="edge23" class="edge">
<title>src/OSBase&#45;&gt;MulleObjCPlistFoundation</title>
<path fill="none" stroke="black" d="M1459.79,-218.27C1462.73,-217.48 1465.65,-216.71 1468.5,-216 1518.69,-203.41 1574.99,-191.41 1621.71,-182.02"/>
<polygon fill="black" stroke="black" points="1622.41,-185.45 1631.53,-180.06 1621.04,-178.59 1622.41,-185.45"/>
</g>
<!-- MulleObjCContainerFoundation -->
<g id="node17" class="node">
<title>MulleObjCContainerFoundation</title>
<polygon fill="lightgrey" stroke="black" points="897,-108 654,-108 654,-72 897,-72 897,-108"/>
<text text-anchor="middle" x="775.5" y="-86.3" font-family="Times,serif" font-size="14.00">MulleObjCContainerFoundation</text>
</g>
<!-- MulleObjCStandardFoundation&#45;&gt;MulleObjCContainerFoundation -->
<g id="edge15" class="edge">
<title>MulleObjCStandardFoundation&#45;&gt;MulleObjCContainerFoundation</title>
<path fill="none" stroke="black" d="M1046.38,-143.97C993.87,-133.7 926.89,-120.6 872.67,-110"/>
<polygon fill="black" stroke="black" points="873.18,-106.53 862.7,-108.05 871.84,-113.4 873.18,-106.53"/>
</g>
<!-- MulleObjCTimeFoundation -->
<g id="node18" class="node">
<title>MulleObjCTimeFoundation</title>
<polygon fill="lightgrey" stroke="black" points="1123.5,-108 915.5,-108 915.5,-72 1123.5,-72 1123.5,-108"/>
<text text-anchor="middle" x="1019.5" y="-86.3" font-family="Times,serif" font-size="14.00">MulleObjCTimeFoundation</text>
</g>
<!-- MulleObjCStandardFoundation&#45;&gt;MulleObjCTimeFoundation -->
<g id="edge16" class="edge">
<title>MulleObjCStandardFoundation&#45;&gt;MulleObjCTimeFoundation</title>
<path fill="none" stroke="black" d="M1105.61,-143.88C1090.71,-134.72 1072.17,-123.34 1056.12,-113.48"/>
<polygon fill="black" stroke="black" points="1057.85,-110.44 1047.49,-108.19 1054.19,-116.41 1057.85,-110.44"/>
</g>
<!-- MulleObjCValueFoundation -->
<g id="node19" class="node">
<title>MulleObjCValueFoundation</title>
<polygon fill="lightgrey" stroke="black" points="1353.5,-108 1141.5,-108 1141.5,-72 1353.5,-72 1353.5,-108"/>
<text text-anchor="middle" x="1247.5" y="-86.3" font-family="Times,serif" font-size="14.00">MulleObjCValueFoundation</text>
</g>
<!-- MulleObjCStandardFoundation&#45;&gt;MulleObjCValueFoundation -->
<g id="edge17" class="edge">
<title>MulleObjCStandardFoundation&#45;&gt;MulleObjCValueFoundation</title>
<path fill="none" stroke="black" d="M1161.39,-143.88C1176.29,-134.72 1194.83,-123.34 1210.88,-113.48"/>
<polygon fill="black" stroke="black" points="1212.81,-116.41 1219.51,-108.19 1209.15,-110.44 1212.81,-116.41"/>
</g>
<!-- mulle&#45;unicode -->
<g id="node20" class="node">
<title>mulle&#45;unicode</title>
<polygon fill="lightgrey" stroke="black" points="1487.5,-108 1371.5,-108 1371.5,-72 1487.5,-72 1487.5,-108"/>
<text text-anchor="middle" x="1429.5" y="-86.3" font-family="Times,serif" font-size="14.00">mulle&#45;unicode</text>
</g>
<!-- MulleObjCStandardFoundation&#45;&gt;mulle&#45;unicode -->
<g id="edge18" class="edge">
<title>MulleObjCStandardFoundation&#45;&gt;mulle&#45;unicode</title>
<path fill="none" stroke="black" d="M1208.89,-143.97C1251.15,-134.33 1305.06,-121.86 1361.58,-108.2"/>
<polygon fill="black" stroke="black" points="1362.52,-111.57 1371.41,-105.82 1360.87,-104.77 1362.52,-111.57"/>
</g>
<!-- MulleObjC -->
<g id="node21" class="node">
<title>MulleObjC</title>
<polygon fill="lightgrey" stroke="black" points="1009.5,-36 917.5,-36 917.5,0 1009.5,0 1009.5,-36"/>
<text text-anchor="middle" x="963.5" y="-14.3" font-family="Times,serif" font-size="14.00">MulleObjC</text>
</g>
<!-- MulleObjCTimeFoundation&#45;&gt;MulleObjC -->
<g id="edge19" class="edge">
<title>MulleObjCTimeFoundation&#45;&gt;MulleObjC</title>
<path fill="none" stroke="black" d="M1005.66,-71.7C999.01,-63.39 990.92,-53.28 983.61,-44.14"/>
<polygon fill="black" stroke="black" points="986.16,-41.73 977.18,-36.1 980.7,-46.1 986.16,-41.73"/>
</g>
<!-- mulle&#45;time -->
<g id="node22" class="node">
<title>mulle&#45;time</title>
<polygon fill="lightgrey" stroke="black" points="1121,-36 1028,-36 1028,0 1121,0 1121,-36"/>
<text text-anchor="middle" x="1074.5" y="-14.3" font-family="Times,serif" font-size="14.00">mulle&#45;time</text>
</g>
<!-- MulleObjCTimeFoundation&#45;&gt;mulle&#45;time -->
<g id="edge20" class="edge">
<title>MulleObjCTimeFoundation&#45;&gt;mulle&#45;time</title>
<path fill="none" stroke="black" d="M1033.1,-71.7C1039.62,-63.39 1047.57,-53.28 1054.75,-44.14"/>
<polygon fill="black" stroke="black" points="1057.63,-46.13 1061.06,-36.1 1052.13,-41.81 1057.63,-46.13"/>
</g>
</g>
</svg>
