<?xml version="1.0" encoding="UTF-8" standalone="no"?>
<!DOCTYPE svg PUBLIC "-//W3C//DTD SVG 1.1//EN"
 "http://www.w3.org/Graphics/SVG/1.1/DTD/svg11.dtd">
<!-- Generated by graphviz version 2.43.0 (0)
 -->
<!-- Title: sourcetree Pages: 1 -->
<svg width="1243pt" height="530pt"
 viewBox="0.00 0.00 1243.00 530.00" xmlns="http://www.w3.org/2000/svg" xmlns:xlink="http://www.w3.org/1999/xlink">
<g id="graph0" class="graph" transform="scale(1 1) rotate(0) translate(4 526)">
<title>sourcetree</title>
<polygon fill="white" stroke="transparent" points="-4,4 -4,-526 1239,-526 1239,4 -4,4"/>
<!-- MulleFoundation -->
<g id="node1" class="node">
<title>MulleFoundation</title>
<polygon fill="yellow" stroke="black" points="137,-333 0,-333 0,-297 137,-297 137,-333"/>
<text text-anchor="middle" x="68.5" y="-311.3" font-family="Times,serif" font-size="14.00">MulleFoundation</text>
</g>
<!-- MulleObjCArchiverFoundation -->
<g id="node2" class="node">
<title>MulleObjCArchiverFoundation</title>
<polygon fill="lightgrey" stroke="black" points="408,-522 175,-522 175,-486 408,-486 408,-522"/>
<text text-anchor="middle" x="291.5" y="-500.3" font-family="Times,serif" font-size="14.00">MulleObjCArchiverFoundation</text>
</g>
<!-- MulleFoundation&#45;&gt;MulleObjCArchiverFoundation -->
<g id="edge1" class="edge">
<title>MulleFoundation&#45;&gt;MulleObjCArchiverFoundation</title>
<path fill="none" stroke="black" d="M75.75,-333.12C88.43,-367.03 120.49,-439.98 173,-477 175.1,-478.48 177.26,-479.88 179.48,-481.2"/>
<polygon fill="black" stroke="black" points="177.84,-484.29 188.31,-485.93 181.15,-478.12 177.84,-484.29"/>
</g>
<!-- MulleObjCCalendarFoundation -->
<g id="node3" class="node">
<title>MulleObjCCalendarFoundation</title>
<polygon fill="lightgrey" stroke="black" points="410,-468 173,-468 173,-432 410,-432 410,-468"/>
<text text-anchor="middle" x="291.5" y="-446.3" font-family="Times,serif" font-size="14.00">MulleObjCCalendarFoundation</text>
</g>
<!-- MulleFoundation&#45;&gt;MulleObjCCalendarFoundation -->
<g id="edge2" class="edge">
<title>MulleFoundation&#45;&gt;MulleObjCCalendarFoundation</title>
<path fill="none" stroke="black" d="M81.57,-333.02C98.85,-357.37 133.02,-400.31 173,-423 176.1,-424.76 179.3,-426.4 182.59,-427.94"/>
<polygon fill="black" stroke="black" points="181.46,-431.26 192.03,-431.99 184.22,-424.83 181.46,-431.26"/>
</g>
<!-- MulleObjCDecimalFoundation -->
<g id="node4" class="node">
<title>MulleObjCDecimalFoundation</title>
<polygon fill="lightgrey" stroke="black" points="406.5,-414 176.5,-414 176.5,-378 406.5,-378 406.5,-414"/>
<text text-anchor="middle" x="291.5" y="-392.3" font-family="Times,serif" font-size="14.00">MulleObjCDecimalFoundation</text>
</g>
<!-- MulleFoundation&#45;&gt;MulleObjCDecimalFoundation -->
<g id="edge3" class="edge">
<title>MulleFoundation&#45;&gt;MulleObjCDecimalFoundation</title>
<path fill="none" stroke="black" d="M99.36,-333.18C119.55,-344.82 147.14,-359.46 173,-369 178.86,-371.16 184.96,-373.19 191.15,-375.08"/>
<polygon fill="black" stroke="black" points="190.36,-378.49 200.94,-377.94 192.32,-371.78 190.36,-378.49"/>
</g>
<!-- MulleObjCKVCFoundation -->
<g id="node5" class="node">
<title>MulleObjCKVCFoundation</title>
<polygon fill="lightgrey" stroke="black" points="393,-360 190,-360 190,-324 393,-324 393,-360"/>
<text text-anchor="middle" x="291.5" y="-338.3" font-family="Times,serif" font-size="14.00">MulleObjCKVCFoundation</text>
</g>
<!-- MulleFoundation&#45;&gt;MulleObjCKVCFoundation -->
<g id="edge4" class="edge">
<title>MulleFoundation&#45;&gt;MulleObjCKVCFoundation</title>
<path fill="none" stroke="black" d="M137.01,-323.25C150.52,-324.9 165.05,-326.67 179.58,-328.45"/>
<polygon fill="black" stroke="black" points="179.28,-331.94 189.64,-329.68 180.13,-324.99 179.28,-331.94"/>
</g>
<!-- mulle&#45;objc&#45;list -->
<g id="node6" class="node">
<title>mulle&#45;objc&#45;list</title>
<polygon fill="lightgrey" stroke="black" points="350,-306 233,-306 233,-270 350,-270 350,-306"/>
<text text-anchor="middle" x="291.5" y="-284.3" font-family="Times,serif" font-size="14.00">mulle&#45;objc&#45;list</text>
</g>
<!-- MulleFoundation&#45;&gt;mulle&#45;objc&#45;list -->
<g id="edge5" class="edge">
<title>MulleFoundation&#45;&gt;mulle&#45;objc&#45;list</title>
<path fill="none" stroke="black" d="M137.01,-306.75C164.13,-303.44 195.36,-299.62 222.53,-296.3"/>
<polygon fill="black" stroke="black" points="223.23,-299.75 232.73,-295.06 222.38,-292.8 223.23,-299.75"/>
</g>
<!-- MulleObjCMathFoundation -->
<g id="node7" class="node">
<title>MulleObjCMathFoundation</title>
<polygon fill="lightgrey" stroke="black" points="396.5,-252 186.5,-252 186.5,-216 396.5,-216 396.5,-252"/>
<text text-anchor="middle" x="291.5" y="-230.3" font-family="Times,serif" font-size="14.00">MulleObjCMathFoundation</text>
</g>
<!-- MulleFoundation&#45;&gt;MulleObjCMathFoundation -->
<g id="edge6" class="edge">
<title>MulleFoundation&#45;&gt;MulleObjCMathFoundation</title>
<path fill="none" stroke="black" d="M99.36,-296.82C119.55,-285.18 147.14,-270.54 173,-261 178.86,-258.84 184.96,-256.81 191.15,-254.92"/>
<polygon fill="black" stroke="black" points="192.32,-258.22 200.94,-252.06 190.36,-251.51 192.32,-258.22"/>
</g>
<!-- MulleObjCOSFoundation -->
<g id="node8" class="node">
<title>MulleObjCOSFoundation</title>
<polygon fill="lightgrey" stroke="black" points="388.5,-198 194.5,-198 194.5,-162 388.5,-162 388.5,-198"/>
<text text-anchor="middle" x="291.5" y="-176.3" font-family="Times,serif" font-size="14.00">MulleObjCOSFoundation</text>
</g>
<!-- MulleFoundation&#45;&gt;MulleObjCOSFoundation -->
<g id="edge7" class="edge">
<title>MulleFoundation&#45;&gt;MulleObjCOSFoundation</title>
<path fill="none" stroke="black" d="M81.57,-296.98C98.85,-272.63 133.02,-229.69 173,-207 176.89,-204.79 180.96,-202.76 185.13,-200.9"/>
<polygon fill="black" stroke="black" points="186.52,-204.11 194.44,-197.08 183.86,-197.64 186.52,-204.11"/>
</g>
<!-- MulleObjCUnicodeFoundation -->
<g id="node9" class="node">
<title>MulleObjCUnicodeFoundation</title>
<polygon fill="lightgrey" stroke="black" points="407,-144 176,-144 176,-108 407,-108 407,-144"/>
<text text-anchor="middle" x="291.5" y="-122.3" font-family="Times,serif" font-size="14.00">MulleObjCUnicodeFoundation</text>
</g>
<!-- MulleFoundation&#45;&gt;MulleObjCUnicodeFoundation -->
<g id="edge8" class="edge">
<title>MulleFoundation&#45;&gt;MulleObjCUnicodeFoundation</title>
<path fill="none" stroke="black" d="M75.75,-296.88C88.43,-262.97 120.49,-190.02 173,-153 175.1,-151.52 177.26,-150.12 179.48,-148.8"/>
<polygon fill="black" stroke="black" points="181.15,-151.88 188.31,-144.07 177.84,-145.71 181.15,-151.88"/>
</g>
<!-- src/BSD -->
<g id="node12" class="node">
<title>src/BSD</title>
<polygon fill="lightgrey" stroke="black" points="536.5,-360 462.5,-360 462.5,-324 536.5,-324 536.5,-360"/>
<text text-anchor="middle" x="499.5" y="-338.3" font-family="Times,serif" font-size="14.00">src/BSD</text>
</g>
<!-- MulleObjCOSFoundation&#45;&gt;src/BSD -->
<g id="edge10" class="edge">
<title>MulleObjCOSFoundation&#45;&gt;src/BSD</title>
<path fill="none" stroke="black" d="M388.77,-193.07C396.5,-196.73 403.73,-201.3 410,-207 447.45,-241.02 413.07,-276.59 446,-315 448.41,-317.81 451.19,-320.37 454.17,-322.68"/>
<polygon fill="black" stroke="black" points="452.23,-325.59 462.48,-328.26 456.13,-319.78 452.23,-325.59"/>
</g>
<!-- src/Darwin -->
<g id="node13" class="node">
<title>src/Darwin</title>
<polygon fill="lightgrey" stroke="black" points="547,-306 452,-306 452,-270 547,-270 547,-306"/>
<text text-anchor="middle" x="499.5" y="-284.3" font-family="Times,serif" font-size="14.00">src/Darwin</text>
</g>
<!-- MulleObjCOSFoundation&#45;&gt;src/Darwin -->
<g id="edge11" class="edge">
<title>MulleObjCOSFoundation&#45;&gt;src/Darwin</title>
<path fill="none" stroke="black" d="M388.76,-195.56C396.26,-198.71 403.45,-202.48 410,-207 433.74,-223.39 424.48,-241.79 446,-261 447.15,-262.02 448.34,-263.02 449.57,-263.99"/>
<polygon fill="black" stroke="black" points="447.92,-267.11 458.11,-269.98 451.93,-261.37 447.92,-267.11"/>
</g>
<!-- src/FreeBSD -->
<g id="node14" class="node">
<title>src/FreeBSD</title>
<polygon fill="lightgrey" stroke="black" points="553,-252 446,-252 446,-216 553,-216 553,-252"/>
<text text-anchor="middle" x="499.5" y="-230.3" font-family="Times,serif" font-size="14.00">src/FreeBSD</text>
</g>
<!-- MulleObjCOSFoundation&#45;&gt;src/FreeBSD -->
<g id="edge12" class="edge">
<title>MulleObjCOSFoundation&#45;&gt;src/FreeBSD</title>
<path fill="none" stroke="black" d="M374.54,-198.08C386.47,-200.93 398.57,-203.95 410,-207 418.46,-209.26 427.32,-211.78 436.04,-214.35"/>
<polygon fill="black" stroke="black" points="435.21,-217.75 445.79,-217.26 437.21,-211.04 435.21,-217.75"/>
</g>
<!-- src/Linux -->
<g id="node15" class="node">
<title>src/Linux</title>
<polygon fill="lightgrey" stroke="black" points="541,-198 458,-198 458,-162 541,-162 541,-198"/>
<text text-anchor="middle" x="499.5" y="-176.3" font-family="Times,serif" font-size="14.00">src/Linux</text>
</g>
<!-- MulleObjCOSFoundation&#45;&gt;src/Linux -->
<g id="edge13" class="edge">
<title>MulleObjCOSFoundation&#45;&gt;src/Linux</title>
<path fill="none" stroke="black" d="M388.56,-180C408.99,-180 429.79,-180 447.72,-180"/>
<polygon fill="black" stroke="black" points="447.92,-183.5 457.92,-180 447.92,-176.5 447.92,-183.5"/>
</g>
<!-- src/OSBase -->
<g id="node16" class="node">
<title>src/OSBase</title>
<polygon fill="lightgrey" stroke="black" points="548.5,-144 450.5,-144 450.5,-108 548.5,-108 548.5,-144"/>
<text text-anchor="middle" x="499.5" y="-122.3" font-family="Times,serif" font-size="14.00">src/OSBase</text>
</g>
<!-- MulleObjCOSFoundation&#45;&gt;src/OSBase -->
<g id="edge14" class="edge">
<title>MulleObjCOSFoundation&#45;&gt;src/OSBase</title>
<path fill="none" stroke="black" d="M374.54,-161.92C386.47,-159.07 398.57,-156.05 410,-153 420,-150.33 430.57,-147.29 440.79,-144.25"/>
<polygon fill="black" stroke="black" points="441.89,-147.57 450.45,-141.33 439.86,-140.87 441.89,-147.57"/>
</g>
<!-- src/Posix -->
<g id="node17" class="node">
<title>src/Posix</title>
<polygon fill="lightgrey" stroke="black" points="539.5,-90 459.5,-90 459.5,-54 539.5,-54 539.5,-90"/>
<text text-anchor="middle" x="499.5" y="-68.3" font-family="Times,serif" font-size="14.00">src/Posix</text>
</g>
<!-- MulleObjCOSFoundation&#45;&gt;src/Posix -->
<g id="edge15" class="edge">
<title>MulleObjCOSFoundation&#45;&gt;src/Posix</title>
<path fill="none" stroke="black" d="M388.76,-164.44C396.26,-161.29 403.45,-157.52 410,-153 433.74,-136.61 424.48,-118.21 446,-99 447.52,-97.64 449.12,-96.33 450.78,-95.07"/>
<polygon fill="black" stroke="black" points="453.15,-97.69 459.46,-89.18 449.22,-91.9 453.15,-97.69"/>
</g>
<!-- src/Windows -->
<g id="node18" class="node">
<title>src/Windows</title>
<polygon fill="lightgrey" stroke="black" points="553,-36 446,-36 446,0 553,0 553,-36"/>
<text text-anchor="middle" x="499.5" y="-14.3" font-family="Times,serif" font-size="14.00">src/Windows</text>
</g>
<!-- MulleObjCOSFoundation&#45;&gt;src/Windows -->
<g id="edge16" class="edge">
<title>MulleObjCOSFoundation&#45;&gt;src/Windows</title>
<path fill="none" stroke="black" d="M388.77,-166.93C396.5,-163.27 403.73,-158.7 410,-153 447.45,-118.98 413.07,-83.41 446,-45 446.72,-44.16 447.47,-43.35 448.24,-42.56"/>
<polygon fill="black" stroke="black" points="450.57,-45.18 455.9,-36.02 446.02,-39.85 450.57,-45.18"/>
</g>
<!-- MulleObjCLockFoundation -->
<g id="node10" class="node">
<title>MulleObjCLockFoundation</title>
<polygon fill="lightgrey" stroke="black" points="811.5,-252 605.5,-252 605.5,-216 811.5,-216 811.5,-252"/>
<text text-anchor="middle" x="708.5" y="-230.3" font-family="Times,serif" font-size="14.00">MulleObjCLockFoundation</text>
</g>
<!-- mulle&#45;time -->
<g id="node11" class="node">
<title>mulle&#45;time</title>
<polygon fill="lightgrey" stroke="black" points="1032,-265 939,-265 939,-229 1032,-229 1032,-265"/>
<text text-anchor="middle" x="985.5" y="-243.3" font-family="Times,serif" font-size="14.00">mulle&#45;time</text>
</g>
<!-- MulleObjCLockFoundation&#45;&gt;mulle&#45;time -->
<g id="edge9" class="edge">
<title>MulleObjCLockFoundation&#45;&gt;mulle&#45;time</title>
<path fill="none" stroke="black" d="M811.51,-238.82C851.13,-240.7 894.97,-242.77 928.6,-244.36"/>
<polygon fill="black" stroke="black" points="928.54,-247.86 938.69,-244.83 928.87,-240.87 928.54,-247.86"/>
</g>
<!-- src/OSBase&#45;&gt;MulleObjCLockFoundation -->
<g id="edge22" class="edge">
<title>src/OSBase&#45;&gt;MulleObjCLockFoundation</title>
<path fill="none" stroke="black" d="M537.65,-144.11C542.89,-146.95 548.13,-149.95 553,-153 569.95,-163.61 571.8,-169.79 589,-180 609.06,-191.91 632.21,-202.99 652.69,-211.98"/>
<polygon fill="black" stroke="black" points="651.32,-215.2 661.89,-215.95 654.1,-208.77 651.32,-215.2"/>
</g>
<!-- MulleObjCStandardFoundation -->
<g id="node19" class="node">
<title>MulleObjCStandardFoundation</title>
<polygon fill="lightgrey" stroke="black" points="828,-171 589,-171 589,-135 828,-135 828,-171"/>
<text text-anchor="middle" x="708.5" y="-149.3" font-family="Times,serif" font-size="14.00">MulleObjCStandardFoundation</text>
</g>
<!-- src/OSBase&#45;&gt;MulleObjCStandardFoundation -->
<g id="edge24" class="edge">
<title>src/OSBase&#45;&gt;MulleObjCStandardFoundation</title>
<path fill="none" stroke="black" d="M548.51,-132.26C557.83,-133.48 568.01,-134.81 578.56,-136.18"/>
<polygon fill="black" stroke="black" points="578.41,-139.69 588.77,-137.51 579.31,-132.75 578.41,-139.69"/>
</g>
<!-- mulle&#45;mmap -->
<g id="node24" class="node">
<title>mulle&#45;mmap</title>
<polygon fill="lightgrey" stroke="black" points="761,-117 656,-117 656,-81 761,-81 761,-117"/>
<text text-anchor="middle" x="708.5" y="-95.3" font-family="Times,serif" font-size="14.00">mulle&#45;mmap</text>
</g>
<!-- src/OSBase&#45;&gt;mulle&#45;mmap -->
<g id="edge21" class="edge">
<title>src/OSBase&#45;&gt;mulle&#45;mmap</title>
<path fill="none" stroke="black" d="M548.51,-119.74C577.37,-115.97 614.41,-111.14 645.48,-107.09"/>
<polygon fill="black" stroke="black" points="646.3,-110.51 655.77,-105.75 645.4,-103.57 646.3,-110.51"/>
</g>
<!-- MulleObjCPlistFoundation -->
<g id="node25" class="node">
<title>MulleObjCPlistFoundation</title>
<polygon fill="lightgrey" stroke="black" points="811,-63 606,-63 606,-27 811,-27 811,-63"/>
<text text-anchor="middle" x="708.5" y="-41.3" font-family="Times,serif" font-size="14.00">MulleObjCPlistFoundation</text>
</g>
<!-- src/OSBase&#45;&gt;MulleObjCPlistFoundation -->
<g id="edge23" class="edge">
<title>src/OSBase&#45;&gt;MulleObjCPlistFoundation</title>
<path fill="none" stroke="black" d="M537.65,-107.89C542.89,-105.05 548.13,-102.05 553,-99 569.95,-88.39 570.85,-80.41 589,-72 593.32,-70 597.8,-68.14 602.37,-66.42"/>
<polygon fill="black" stroke="black" points="603.62,-69.69 611.89,-63.06 601.29,-63.09 603.62,-69.69"/>
</g>
<!-- MulleObjCContainerFoundation -->
<g id="node20" class="node">
<title>MulleObjCContainerFoundation</title>
<polygon fill="lightgrey" stroke="black" points="1107,-211 864,-211 864,-175 1107,-175 1107,-211"/>
<text text-anchor="middle" x="985.5" y="-189.3" font-family="Times,serif" font-size="14.00">MulleObjCContainerFoundation</text>
</g>
<!-- MulleObjCStandardFoundation&#45;&gt;MulleObjCContainerFoundation -->
<g id="edge17" class="edge">
<title>MulleObjCStandardFoundation&#45;&gt;MulleObjCContainerFoundation</title>
<path fill="none" stroke="black" d="M828.12,-170.25C836.58,-171.48 845.14,-172.73 853.67,-173.97"/>
<polygon fill="black" stroke="black" points="853.26,-177.45 863.66,-175.42 854.26,-170.52 853.26,-177.45"/>
</g>
<!-- MulleObjCValueFoundation -->
<g id="node21" class="node">
<title>MulleObjCValueFoundation</title>
<polygon fill="lightgrey" stroke="black" points="1091.5,-157 879.5,-157 879.5,-121 1091.5,-121 1091.5,-157"/>
<text text-anchor="middle" x="985.5" y="-135.3" font-family="Times,serif" font-size="14.00">MulleObjCValueFoundation</text>
</g>
<!-- MulleObjCStandardFoundation&#45;&gt;MulleObjCValueFoundation -->
<g id="edge18" class="edge">
<title>MulleObjCStandardFoundation&#45;&gt;MulleObjCValueFoundation</title>
<path fill="none" stroke="black" d="M828.12,-146.96C841.67,-146.27 855.48,-145.57 868.99,-144.88"/>
<polygon fill="black" stroke="black" points="869.45,-148.36 879.26,-144.36 869.09,-141.37 869.45,-148.36"/>
</g>
<!-- mulle&#45;unicode -->
<g id="node22" class="node">
<title>mulle&#45;unicode</title>
<polygon fill="lightgrey" stroke="black" points="1043.5,-103 927.5,-103 927.5,-67 1043.5,-67 1043.5,-103"/>
<text text-anchor="middle" x="985.5" y="-81.3" font-family="Times,serif" font-size="14.00">mulle&#45;unicode</text>
</g>
<!-- MulleObjCStandardFoundation&#45;&gt;mulle&#45;unicode -->
<g id="edge19" class="edge">
<title>MulleObjCStandardFoundation&#45;&gt;mulle&#45;unicode</title>
<path fill="none" stroke="black" d="M795.65,-134.94C806.61,-132.18 817.61,-129.18 828,-126 844.41,-120.97 847.58,-117 864,-112 881.06,-106.8 899.75,-102.13 917.22,-98.2"/>
<polygon fill="black" stroke="black" points="918.33,-101.54 927.34,-95.97 916.82,-94.7 918.33,-101.54"/>
</g>
<!-- MulleObjC -->
<g id="node23" class="node">
<title>MulleObjC</title>
<polygon fill="lightgrey" stroke="black" points="1235,-157 1143,-157 1143,-121 1235,-121 1235,-157"/>
<text text-anchor="middle" x="1189" y="-135.3" font-family="Times,serif" font-size="14.00">MulleObjC</text>
</g>
<!-- MulleObjCValueFoundation&#45;&gt;MulleObjC -->
<g id="edge20" class="edge">
<title>MulleObjCValueFoundation&#45;&gt;MulleObjC</title>
<path fill="none" stroke="black" d="M1091.68,-139C1105.69,-139 1119.59,-139 1132.29,-139"/>
<polygon fill="black" stroke="black" points="1132.65,-142.5 1142.65,-139 1132.65,-135.5 1132.65,-142.5"/>
</g>
</g>
</svg>
