<?xml version="1.0" encoding="UTF-8" standalone="no"?>
<!DOCTYPE svg PUBLIC "-//W3C//DTD SVG 1.1//EN"
 "http://www.w3.org/Graphics/SVG/1.1/DTD/svg11.dtd">
<!-- Generated by graphviz version 2.43.0 (0)
 -->
<!-- Title: sourcetree Pages: 1 -->
<svg width="706pt" height="116pt"
 viewBox="0.00 0.00 705.50 116.00" xmlns="http://www.w3.org/2000/svg" xmlns:xlink="http://www.w3.org/1999/xlink">
<g id="graph0" class="graph" transform="scale(1 1) rotate(0) translate(4 112)">
<title>sourcetree</title>
<polygon fill="white" stroke="transparent" points="-4,4 -4,-112 701.5,-112 701.5,4 -4,4"/>
<!-- MulleFoundation -->
<g id="node1" class="node">
<title>MulleFoundation</title>
<polygon fill="yellow" stroke="black" points="439,-108 302,-108 302,-72 439,-72 439,-108"/>
<text text-anchor="middle" x="370.5" y="-86.3" font-family="Times,serif" font-size="14.00">MulleFoundation</text>
</g>
<!-- MulleObjCCalendarFoundation -->
<g id="node2" class="node">
<title>MulleObjCCalendarFoundation</title>
<g id="a_node2"><a xlink:href="https://github.com/MulleFoundation/MulleObjCCalendarFoundation" xlink:title="MulleObjCCalendarFoundation">
<polygon fill="lightgrey" stroke="black" points="237,-36 0,-36 0,0 237,0 237,-36"/>
<text text-anchor="middle" x="118.5" y="-14.3" font-family="Times,serif" font-size="14.00">MulleObjCCalendarFoundation</text>
</a>
</g>
</g>
<!-- MulleFoundation&#45;&gt;MulleObjCCalendarFoundation -->
<g id="edge1" class="edge">
<title>MulleFoundation&#45;&gt;MulleObjCCalendarFoundation</title>
<path fill="none" stroke="black" d="M309.18,-71.97C273.2,-61.97 227.57,-49.3 189.97,-38.85"/>
<polygon fill="black" stroke="black" points="190.67,-35.42 180.1,-36.11 188.8,-42.16 190.67,-35.42"/>
</g>
<!-- MulleObjCDecimalFoundation -->
<g id="node3" class="node">
<title>MulleObjCDecimalFoundation</title>
<g id="a_node3"><a xlink:href="https://github.com/MulleFoundation/MulleObjCDecimalFoundation" xlink:title="MulleObjCDecimalFoundation">
<polygon fill="lightgrey" stroke="black" points="485.5,-36 255.5,-36 255.5,0 485.5,0 485.5,-36"/>
<text text-anchor="middle" x="370.5" y="-14.3" font-family="Times,serif" font-size="14.00">MulleObjCDecimalFoundation</text>
</a>
</g>
</g>
<!-- MulleFoundation&#45;&gt;MulleObjCDecimalFoundation -->
<g id="edge2" class="edge">
<title>MulleFoundation&#45;&gt;MulleObjCDecimalFoundation</title>
<path fill="none" stroke="black" d="M370.5,-71.7C370.5,-63.98 370.5,-54.71 370.5,-46.11"/>
<polygon fill="black" stroke="black" points="374,-46.1 370.5,-36.1 367,-46.1 374,-46.1"/>
</g>
<!-- MulleObjCOSFoundation -->
<g id="node4" class="node">
<title>MulleObjCOSFoundation</title>
<g id="a_node4"><a xlink:href="https://github.com/MulleFoundation/MulleObjCOSFoundation" xlink:title="MulleObjCOSFoundation">
<polygon fill="lightgrey" stroke="black" points="697.5,-36 503.5,-36 503.5,0 697.5,0 697.5,-36"/>
<text text-anchor="middle" x="600.5" y="-14.3" font-family="Times,serif" font-size="14.00">MulleObjCOSFoundation</text>
</a>
</g>
</g>
<!-- MulleFoundation&#45;&gt;MulleObjCOSFoundation -->
<g id="edge3" class="edge">
<title>MulleFoundation&#45;&gt;MulleObjCOSFoundation</title>
<path fill="none" stroke="black" d="M426.47,-71.97C459.03,-62.06 500.24,-49.51 534.39,-39.12"/>
<polygon fill="black" stroke="black" points="535.73,-42.37 544.28,-36.11 533.69,-35.67 535.73,-42.37"/>
</g>
</g>
</svg>
